<svg width="16" height="16" viewBox="0 0 16 16" fill="none" xmlns="http://www.w3.org/2000/svg">
<path d="M7.04535 11.14L2.24935 5.658C1.68335 5.013 2.14335 4 3.00235 4H12.5944C12.7866 3.99984 12.9748 4.05509 13.1365 4.15914C13.2981 4.26319 13.4263 4.41164 13.5058 4.58669C13.5853 4.76175 13.6126 4.956 13.5845 5.14618C13.5564 5.33636 13.474 5.51441 13.3474 5.659L8.55135 11.139C8.45749 11.2464 8.34174 11.3325 8.21186 11.3915C8.08198 11.4505 7.94099 11.481 7.79835 11.481C7.65571 11.481 7.51472 11.4505 7.38484 11.3915C7.25497 11.3325 7.13921 11.2464 7.04535 11.139V11.14Z" fill="#ACACAC"/>
</svg>
