<svg width="71" height="71" viewBox="0 0 71 71" fill="none" xmlns="http://www.w3.org/2000/svg">
<path d="M37.6301 31.9501C36.2101 31.5951 34.7901 30.8851 33.7251 29.8201C32.6601 29.4651 32.3051 28.4001 32.3051 27.6901C32.3051 26.9801 32.6601 25.9151 33.3701 25.5601C34.4351 24.8501 35.5001 24.1401 36.5651 24.4951C38.6951 24.4951 40.4701 25.5601 41.5351 26.9801L44.7301 22.7201C43.6651 21.6551 42.6001 20.9451 41.5351 20.2351C40.4701 19.5251 39.0501 19.1701 37.6301 19.1701V14.2001H33.3701V19.1701C31.5951 19.5251 29.8201 20.5901 28.4001 22.0101C26.9801 23.7851 25.9151 25.9151 26.2701 28.0451C26.2701 30.1751 26.9801 32.3051 28.4001 33.7251C30.1751 35.5001 32.6601 36.5651 34.7901 37.6301C35.8551 37.9851 37.2751 38.6951 38.3401 39.4051C39.0501 40.1151 39.4051 41.1801 39.4051 42.2451C39.4051 43.3101 39.0501 44.3751 38.3401 45.4401C37.2751 46.5051 35.8551 46.8601 34.7901 46.8601C33.3701 46.8601 31.5951 46.5051 30.5301 45.4401C29.4651 44.7301 28.4001 43.6651 27.6901 42.6001L24.1401 46.5051C25.2051 47.9251 26.2701 48.9901 27.6901 50.0551C29.4651 51.1201 31.5951 52.1851 33.7251 52.1851V56.8001H37.6301V51.4751C39.7601 51.1201 41.5351 50.0551 42.9551 48.6351C44.7301 46.8601 45.7951 44.0201 45.7951 41.5351C45.7951 39.4051 45.0851 36.9201 43.3101 35.5001C41.5351 33.7251 39.7601 32.6601 37.6301 31.9501ZM35.5001 7.1001C19.8801 7.1001 7.1001 19.8801 7.1001 35.5001C7.1001 51.1201 19.8801 63.9001 35.5001 63.9001C51.1201 63.9001 63.9001 51.1201 63.9001 35.5001C63.9001 19.8801 51.1201 7.1001 35.5001 7.1001ZM35.5001 59.9951C22.0101 59.9951 11.0051 48.9901 11.0051 35.5001C11.0051 22.0101 22.0101 11.0051 35.5001 11.0051C48.9901 11.0051 59.9951 22.0101 59.9951 35.5001C59.9951 48.9901 48.9901 59.9951 35.5001 59.9951Z" fill="#0F9B93"/>
</svg>
