<svg width="171" height="171" viewBox="0 0 171 171" fill="none" xmlns="http://www.w3.org/2000/svg">
<path d="M85.5 7.5C95.7431 7.5 105.886 9.51753 115.349 13.4374C124.813 17.3573 133.411 23.1027 140.654 30.3457C147.897 37.5886 153.643 46.1873 157.563 55.6507C161.482 65.1141 163.5 75.2569 163.5 85.5C163.5 95.7431 161.482 105.886 157.563 115.349C153.643 124.813 147.897 133.411 140.654 140.654C133.411 147.897 124.813 153.643 115.349 157.563C105.886 161.482 95.7431 163.5 85.5 163.5C75.2569 163.5 65.1141 161.482 55.6507 157.563C46.1873 153.643 37.5886 147.897 30.3456 140.654C23.1027 133.411 17.3572 124.813 13.4374 115.349C9.51752 105.886 7.49999 95.7431 7.5 85.5C7.50001 75.2569 9.51754 65.114 13.4374 55.6507C17.3573 46.1873 23.1027 37.5886 30.3457 30.3456C37.5887 23.1027 46.1873 17.3572 55.6507 13.4374C65.1141 9.51752 75.2569 7.49999 85.5001 7.5L85.5 7.5Z" stroke="#0F9B93" stroke-width="15" stroke-miterlimit="2.61313" stroke-linecap="round"/>
</svg>
