<svg width="120" height="120" viewBox="0 0 120 120" fill="none" xmlns="http://www.w3.org/2000/svg">
<g filter="url(#filter0_d_6_2280)">
<circle r="50" transform="matrix(-1 0 0 1 60 60)" fill="white"/>
</g>
<path d="M67.3611 43.6702C67.6363 43.9449 67.8546 44.2711 68.0036 44.6302C68.1526 44.9894 68.2292 45.3744 68.2292 45.7632C68.2292 46.152 68.1526 46.537 68.0036 46.8961C67.8546 47.2553 67.6363 47.5815 67.3611 47.8561L55.8423 59.3749L67.3611 70.8936C67.9161 71.4487 68.228 72.2016 68.228 72.9866C68.228 73.7716 67.9161 74.5245 67.3611 75.0796C66.806 75.6347 66.0531 75.9465 65.2681 75.9465C64.4831 75.9465 63.7302 75.6347 63.1751 75.0796L49.5486 61.453C49.2733 61.1784 49.055 60.8521 48.906 60.493C48.757 60.1339 48.6804 59.7489 48.6804 59.36C48.6804 58.9712 48.757 58.5862 48.906 58.2271C49.055 57.868 49.2733 57.5417 49.5486 57.2671L63.1751 43.6405C64.3032 42.5124 66.2032 42.5124 67.3611 43.6702Z" fill="black"/>
<defs>
<filter id="filter0_d_6_2280" x="0" y="0" width="120" height="120" filterUnits="userSpaceOnUse" color-interpolation-filters="sRGB">
<feFlood flood-opacity="0" result="BackgroundImageFix"/>
<feColorMatrix in="SourceAlpha" type="matrix" values="0 0 0 0 0 0 0 0 0 0 0 0 0 0 0 0 0 0 127 0" result="hardAlpha"/>
<feOffset/>
<feGaussianBlur stdDeviation="5"/>
<feComposite in2="hardAlpha" operator="out"/>
<feColorMatrix type="matrix" values="0 0 0 0 0 0 0 0 0 0 0 0 0 0 0 0 0 0 0.1 0"/>
<feBlend mode="normal" in2="BackgroundImageFix" result="effect1_dropShadow_6_2280"/>
<feBlend mode="normal" in="SourceGraphic" in2="effect1_dropShadow_6_2280" result="shape"/>
</filter>
</defs>
</svg>
