<svg width="138" height="36" viewBox="0 0 138 36" fill="none" xmlns="http://www.w3.org/2000/svg">
<path d="M21.182 32.2H26.163V19.79H30.328L30.957 14.962H26.163V11.868C26.163 10.474 26.554 9.522 28.56 9.522H31.127V5.187C30.685 5.136 29.172 5 27.404 5C23.698 5 21.182 7.261 21.182 11.392V14.962H17V19.79H21.182V32.2Z" fill="#0F9B93"/>
<path d="M85.4945 8.99409C84.3116 9.51826 83.0408 9.87242 81.7049 10.0325C83.0833 9.20771 84.1146 7.90958 84.6062 6.38034C83.3112 7.14958 81.8938 7.69103 80.4157 7.98117C79.4218 6.9199 78.1052 6.21647 76.6705 5.9801C75.2358 5.74372 73.7632 5.98763 72.4813 6.67395C71.1994 7.36027 70.18 8.4506 69.5813 9.77567C68.9826 11.1007 68.8381 12.5864 69.1702 14.002C66.5461 13.8703 63.979 13.1882 61.6356 12.0001C59.2921 10.812 57.2247 9.14449 55.5674 7.10567C55.0007 8.08317 54.6749 9.21651 54.6749 10.4235C54.6743 11.5101 54.9418 12.58 55.4539 13.5384C55.9659 14.4967 56.7066 15.3139 57.6102 15.9173C56.5623 15.884 55.5375 15.6008 54.6211 15.0914V15.1764C54.6209 16.7004 55.1481 18.1775 56.1131 19.357C57.078 20.5365 58.4214 21.3459 59.9151 21.6478C58.943 21.9109 57.9238 21.9496 56.9345 21.7611C57.3559 23.0724 58.1769 24.219 59.2824 25.0406C60.3879 25.8621 61.7227 26.3173 63.0998 26.3426C60.7621 28.1778 57.875 29.1732 54.903 29.1688C54.3765 29.169 53.8505 29.1382 53.3276 29.0768C56.3444 31.0164 59.8561 32.0458 63.4426 32.0418C75.5835 32.0418 82.2206 21.9863 82.2206 13.2653C82.2206 12.982 82.2135 12.6958 82.2007 12.4125C83.4917 11.4789 84.6061 10.3228 85.4916 8.99834L85.4945 8.99409Z" fill="#0F9B93"/>
<path fill-rule="evenodd" clip-rule="evenodd" d="M114.575 1.51017C116.237 1.43367 116.767 1.41667 121 1.41667C125.233 1.41667 125.763 1.43509 127.423 1.51017C129.083 1.58526 130.217 1.85017 131.208 2.23409C132.247 2.62651 133.189 3.23992 133.968 4.03325C134.761 4.811 135.373 5.75167 135.764 6.79151C136.15 7.78317 136.413 8.91651 136.49 10.574C136.566 12.2386 136.583 12.7684 136.583 17C136.583 21.233 136.565 21.7628 136.49 23.4246C136.415 25.0821 136.15 26.2154 135.764 27.2071C135.373 28.2471 134.76 29.1893 133.968 29.9682C133.189 30.7615 132.247 31.3735 131.208 31.7645C130.217 32.1498 129.083 32.4133 127.426 32.4898C125.763 32.5663 125.233 32.5833 121 32.5833C116.767 32.5833 116.237 32.5649 114.575 32.4898C112.918 32.4148 111.784 32.1498 110.793 31.7645C109.753 31.3735 108.811 30.7604 108.032 29.9682C107.239 29.19 106.625 28.2482 106.234 27.2085C105.85 26.2168 105.587 25.0835 105.51 23.426C105.434 21.7614 105.417 21.2316 105.417 17C105.417 12.767 105.435 12.2372 105.51 10.5768C105.585 8.9165 105.85 7.78317 106.234 6.79151C106.626 5.75179 107.24 4.81003 108.033 4.03184C108.811 3.23921 109.752 2.62572 110.791 2.23409C111.783 1.85017 112.916 1.58667 114.574 1.51017H114.575ZM127.297 4.31517C125.654 4.24009 125.161 4.22451 121 4.22451C116.839 4.22451 116.346 4.24009 114.703 4.31517C113.183 4.38459 112.358 4.63817 111.809 4.85209C111.082 5.13542 110.562 5.47117 110.016 6.01659C109.499 6.51958 109.102 7.1319 108.852 7.80867C108.638 8.35834 108.384 9.18284 108.315 10.7029C108.24 12.3463 108.224 12.8393 108.224 17C108.224 21.1608 108.24 21.6538 108.315 23.2971C108.384 24.8172 108.638 25.6417 108.852 26.1913C109.101 26.8671 109.499 27.4805 110.016 27.9834C110.519 28.5005 111.133 28.8986 111.809 29.1479C112.358 29.3618 113.183 29.6154 114.703 29.6848C116.346 29.7599 116.838 29.7755 121 29.7755C125.162 29.7755 125.654 29.7599 127.297 29.6848C128.817 29.6154 129.642 29.3618 130.191 29.1479C130.918 28.8646 131.438 28.5288 131.983 27.9834C132.5 27.4805 132.898 26.8671 133.148 26.1913C133.362 25.6417 133.615 24.8172 133.685 23.2971C133.76 21.6538 133.775 21.1608 133.775 17C133.775 12.8393 133.76 12.3463 133.685 10.7029C133.615 9.18284 133.362 8.35834 133.148 7.80867C132.864 7.08192 132.529 6.56201 131.983 6.01659C131.48 5.49961 130.868 5.10172 130.191 4.85209C129.642 4.63817 128.817 4.38459 127.297 4.31517ZM119.009 21.8039C120.121 22.2666 121.359 22.3291 122.511 21.9806C123.664 21.6321 124.66 20.8943 125.329 19.8932C125.998 18.8921 126.298 17.6897 126.179 16.4916C126.06 15.2934 125.529 14.1737 124.676 13.3238C124.132 12.7804 123.475 12.3644 122.751 12.1056C122.028 11.8469 121.255 11.7518 120.491 11.8272C119.726 11.9027 118.987 12.1468 118.328 12.5419C117.668 12.9371 117.105 13.4736 116.678 14.1126C116.251 14.7517 115.971 15.4775 115.858 16.2378C115.745 16.9981 115.802 17.7739 116.025 18.5095C116.248 19.2451 116.632 19.922 117.148 20.4917C117.664 21.0614 118.299 21.5095 119.009 21.8039ZM115.336 11.3362C116.08 10.5924 116.963 10.0024 117.935 9.59985C118.906 9.19732 119.948 8.99013 121 8.99013C122.052 8.99013 123.093 9.19732 124.065 9.59985C125.037 10.0024 125.92 10.5924 126.664 11.3362C127.407 12.08 127.997 12.963 128.4 13.9348C128.803 14.9066 129.01 15.9481 129.01 17C129.01 18.0519 128.803 19.0934 128.4 20.0652C127.997 21.0371 127.407 21.9201 126.664 22.6638C125.162 24.166 123.124 25.0099 121 25.0099C118.875 25.0099 116.838 24.166 115.336 22.6638C113.834 21.1617 112.99 19.1244 112.99 17C112.99 14.8757 113.834 12.8383 115.336 11.3362ZM130.786 10.183C130.97 10.0091 131.118 9.80005 131.22 9.56813C131.322 9.33622 131.377 9.08618 131.38 8.83282C131.384 8.57947 131.337 8.32795 131.242 8.09315C131.146 7.85836 131.005 7.64506 130.826 7.46589C130.647 7.28673 130.433 7.14533 130.199 7.05007C129.964 6.95482 129.712 6.90764 129.459 6.91133C129.205 6.91502 128.955 6.96951 128.724 7.07157C128.492 7.17364 128.283 7.32119 128.109 7.5055C127.771 7.86396 127.585 8.34009 127.593 8.83282C127.6 9.32555 127.799 9.79608 128.147 10.1445C128.496 10.493 128.966 10.6919 129.459 10.6991C129.952 10.7063 130.428 10.5211 130.786 10.183Z" fill="#0F9B93"/>
</svg>
