<svg width="90" height="90" viewBox="0 0 90 90" fill="none" xmlns="http://www.w3.org/2000/svg">
<circle cx="45" cy="45" r="44.5" fill="#F9F9F9" stroke="#0F9B93"/>
<path d="M65.25 26.0274L54.2404 26.0274V23.3487C54.2404 22.6061 53.6251 22.0046 52.8654 22.0046C52.1057 22.0046 51.4904 22.6061 51.4904 23.3487V26.0268H40.4904V23.3487C40.4904 22.6061 39.8751 22.0046 39.1154 22.0046C38.3557 22.0046 37.7404 22.6061 37.7404 23.3487V26.0268H26.75C25.2313 26.0268 24 27.2304 24 28.7149V62.3165C24 63.801 25.2313 65.0046 26.75 65.0046H65.25C66.7687 65.0046 68 63.801 68 62.3165V28.7149C68 27.231 66.7687 26.0274 65.25 26.0274V26.0274ZM65.25 62.3165H26.75V28.7149H37.7404V30.069C37.7404 30.8116 38.3557 31.4131 39.1154 31.4131C39.8751 31.4131 40.4904 30.8116 40.4904 30.069V28.7156H51.4904V30.0697C51.4904 30.8123 52.1057 31.4138 52.8654 31.4138C53.6251 31.4138 54.2404 30.8123 54.2404 30.0697V28.7156H65.25V62.3165ZM55.625 43.5002H58.375C59.134 43.5002 59.75 42.8981 59.75 42.1562V39.468C59.75 38.7261 59.134 38.124 58.375 38.124H55.625C54.866 38.124 54.25 38.7261 54.25 39.468V42.1562C54.25 42.8981 54.866 43.5002 55.625 43.5002ZM55.625 54.2521H58.375C59.134 54.2521 59.75 53.6506 59.75 52.908V50.2199C59.75 49.478 59.134 48.8758 58.375 48.8758H55.625C54.866 48.8758 54.25 49.478 54.25 50.2199V52.908C54.25 53.6513 54.866 54.2521 55.625 54.2521ZM47.375 48.8758H44.625C43.866 48.8758 43.25 49.478 43.25 50.2199V52.908C43.25 53.6506 43.866 54.2521 44.625 54.2521H47.375C48.134 54.2521 48.75 53.6506 48.75 52.908V50.2199C48.75 49.4786 48.134 48.8758 47.375 48.8758ZM47.375 38.124H44.625C43.866 38.124 43.25 38.7261 43.25 39.468V42.1562C43.25 42.8981 43.866 43.5002 44.625 43.5002H47.375C48.134 43.5002 48.75 42.8981 48.75 42.1562V39.468C48.75 38.7254 48.134 38.124 47.375 38.124ZM36.375 38.124H33.625C32.866 38.124 32.25 38.7261 32.25 39.468V42.1562C32.25 42.8981 32.866 43.5002 33.625 43.5002H36.375C37.134 43.5002 37.75 42.8981 37.75 42.1562V39.468C37.75 38.7254 37.134 38.124 36.375 38.124ZM36.375 48.8758H33.625C32.866 48.8758 32.25 49.478 32.25 50.2199V52.908C32.25 53.6506 32.866 54.2521 33.625 54.2521H36.375C37.134 54.2521 37.75 53.6506 37.75 52.908V50.2199C37.75 49.4786 37.134 48.8758 36.375 48.8758Z" fill="#0F9B93"/>
</svg>
