<svg width="90" height="90" viewBox="0 0 90 90" fill="none" xmlns="http://www.w3.org/2000/svg">
<circle cx="45" cy="45" r="44.5" fill="#F9F9F9" stroke="#0F9B93"/>
<path d="M43.1562 37.7812H45.8438V49.875H43.1562V37.7812ZM40.4688 25.6875H48.5312V28.375H40.4688V25.6875Z" fill="#0F9B93"/>
<path d="M60.6251 35.0937L58.7169 33.1991L55.6935 36.2225C53.2186 33.3644 49.7376 31.5697 45.9739 31.2113C42.2102 30.8529 38.4531 31.9583 35.4832 34.2979C32.5133 36.6375 30.559 40.0314 30.0263 43.7744C29.4936 47.5175 30.4235 51.3218 32.6228 54.3971C34.8221 57.4724 38.1217 59.5821 41.8359 60.2879C45.5502 60.9937 49.3936 60.2413 52.5676 58.1871C55.7416 56.1329 58.0022 52.9348 58.8796 49.2573C59.757 45.5798 59.1838 41.7056 57.2791 38.4397L60.6251 35.0937ZM44.5001 57.9375C42.1081 57.9375 39.7699 57.2282 37.7811 55.8993C35.7923 54.5705 34.2422 52.6817 33.3269 50.4718C32.4115 48.262 32.172 45.8303 32.6387 43.4844C33.1053 41.1384 34.2571 38.9835 35.9485 37.2922C37.6398 35.6008 39.7947 34.449 42.1407 33.9824C44.4866 33.5157 46.9183 33.7552 49.1281 34.6706C51.338 35.5859 53.2268 37.136 54.5556 39.1248C55.8845 41.1136 56.5938 43.4518 56.5938 45.8437C56.5938 49.0512 55.3196 52.1273 53.0516 54.3953C50.7836 56.6633 47.7075 57.9375 44.5001 57.9375V57.9375Z" fill="#0F9B93"/>
</svg>
