<svg width="90" height="90" viewBox="0 0 90 90" fill="none" xmlns="http://www.w3.org/2000/svg">
<circle cx="45" cy="45" r="44.5" fill="#F9F9F9" stroke="#0F9B93"/>
<path d="M42.5 26.5833C43.9255 26.5833 45.2927 27.1495 46.3007 28.1576C47.3087 29.1656 47.875 30.5327 47.875 31.9583C47.875 33.3838 47.3087 34.7509 46.3007 35.759C45.2927 36.767 43.9255 37.3333 42.5 37.3333C41.0745 37.3333 39.7073 36.767 38.6993 35.759C37.6913 34.7509 37.125 33.3838 37.125 31.9583C37.125 30.5327 37.6913 29.1656 38.6993 28.1576C39.7073 27.1495 41.0745 26.5833 42.5 26.5833V26.5833ZM40.7083 62.4166H35.3333V51.6666H31.75V39.1249H53.25V51.6666H49.6667V62.4166H44.2917V55.2499H40.7083V62.4166Z" fill="#0F9B93"/>
</svg>
