<svg width="138" height="36" viewBox="0 0 138 36" fill="none" xmlns="http://www.w3.org/2000/svg">
<path d="M21.182 32.2H26.163V19.79H30.328L30.957 14.962H26.163V11.868C26.163 10.474 26.554 9.522 28.56 9.522H31.127V5.187C30.685 5.136 29.172 5 27.404 5C23.698 5 21.182 7.261 21.182 11.392V14.962H17V19.79H21.182V32.2Z" fill="#0F9B93"/>
<path d="M85.4945 8.99415C84.3116 9.51832 83.0408 9.87249 81.7049 10.0326C83.0833 9.20777 84.1146 7.90965 84.6062 6.3804C83.3112 7.14964 81.8938 7.69109 80.4157 7.98124C79.4218 6.91996 78.1052 6.21653 76.6705 5.98016C75.2358 5.74378 73.7632 5.98769 72.4813 6.67401C71.1994 7.36033 70.18 8.45066 69.5813 9.77573C68.9826 11.1008 68.8381 12.5865 69.1702 14.0021C66.5461 13.8703 63.979 13.1883 61.6356 12.0002C59.2921 10.8121 57.2247 9.14455 55.5674 7.10574C55.0007 8.08324 54.6749 9.21657 54.6749 10.4236C54.6743 11.5101 54.9418 12.5801 55.4539 13.5384C55.9659 14.4968 56.7066 15.314 57.6102 15.9174C56.5623 15.8841 55.5375 15.6009 54.6211 15.0915V15.1765C54.6209 16.7005 55.1481 18.1775 56.1131 19.3571C57.078 20.5366 58.4214 21.346 59.9151 21.6478C58.943 21.9109 57.9238 21.9497 56.9345 21.7612C57.3559 23.0724 58.1769 24.2191 59.2824 25.0406C60.3879 25.8622 61.7227 26.3174 63.0998 26.3427C60.7621 28.1778 57.875 29.1733 54.903 29.1689C54.3765 29.169 53.8505 29.1383 53.3276 29.0768C56.3444 31.0165 59.8561 32.0459 63.4426 32.0419C75.5835 32.0419 82.2206 21.9864 82.2206 13.2654C82.2206 12.9821 82.2135 12.6959 82.2007 12.4126C83.4917 11.4789 84.6061 10.3228 85.4916 8.9984L85.4945 8.99415Z" fill="#0F9B93"/>
<path fill-rule="evenodd" clip-rule="evenodd" d="M114.575 1.51025C116.237 1.43375 116.767 1.41675 121 1.41675C125.233 1.41675 125.763 1.43516 127.423 1.51025C129.083 1.58533 130.217 1.85025 131.208 2.23416C132.247 2.62658 133.189 3.24 133.968 4.03333C134.761 4.81108 135.373 5.75175 135.764 6.79158C136.15 7.78325 136.413 8.91658 136.49 10.5741C136.566 12.2387 136.583 12.7685 136.583 17.0001C136.583 21.2331 136.565 21.7629 136.49 23.4247C136.415 25.0822 136.15 26.2155 135.764 27.2072C135.373 28.2471 134.76 29.1894 133.968 29.9682C133.189 30.7616 132.247 31.3736 131.208 31.7646C130.217 32.1499 129.083 32.4134 127.426 32.4899C125.763 32.5664 125.233 32.5834 121 32.5834C116.767 32.5834 116.237 32.565 114.575 32.4899C112.918 32.4148 111.784 32.1499 110.793 31.7646C109.753 31.3735 108.811 30.7605 108.032 29.9682C107.239 29.19 106.625 28.2483 106.234 27.2086C105.85 26.2169 105.587 25.0836 105.51 23.4261C105.434 21.7615 105.417 21.2317 105.417 17.0001C105.417 12.7671 105.435 12.2372 105.51 10.5769C105.585 8.91658 105.85 7.78325 106.234 6.79158C106.626 5.75186 107.24 4.81011 108.033 4.03191C108.811 3.23929 109.752 2.62579 110.791 2.23416C111.783 1.85025 112.916 1.58675 114.574 1.51025H114.575ZM127.297 4.31525C125.654 4.24016 125.161 4.22458 121 4.22458C116.839 4.22458 116.346 4.24016 114.703 4.31525C113.183 4.38466 112.358 4.63825 111.809 4.85216C111.082 5.1355 110.562 5.47125 110.016 6.01666C109.499 6.51965 109.102 7.13198 108.852 7.80875C108.638 8.35841 108.384 9.18291 108.315 10.703C108.24 12.3463 108.224 12.8393 108.224 17.0001C108.224 21.1608 108.24 21.6538 108.315 23.2972C108.384 24.8172 108.638 25.6417 108.852 26.1914C109.101 26.8672 109.499 27.4806 110.016 27.9835C110.519 28.5006 111.133 28.8987 111.809 29.148C112.358 29.3619 113.183 29.6155 114.703 29.6849C116.346 29.76 116.838 29.7756 121 29.7756C125.162 29.7756 125.654 29.76 127.297 29.6849C128.817 29.6155 129.642 29.3619 130.191 29.148C130.918 28.8647 131.438 28.5289 131.983 27.9835C132.5 27.4806 132.898 26.8672 133.148 26.1914C133.362 25.6417 133.615 24.8172 133.685 23.2972C133.76 21.6538 133.775 21.1608 133.775 17.0001C133.775 12.8393 133.76 12.3463 133.685 10.703C133.615 9.18291 133.362 8.35841 133.148 7.80875C132.864 7.082 132.529 6.56208 131.983 6.01666C131.48 5.49968 130.868 5.1018 130.191 4.85216C129.642 4.63825 128.817 4.38466 127.297 4.31525ZM119.009 21.804C120.121 22.2667 121.359 22.3292 122.511 21.9807C123.664 21.6322 124.66 20.8944 125.329 19.8933C125.998 18.8921 126.298 17.6898 126.179 16.4916C126.06 15.2935 125.529 14.1738 124.676 13.3238C124.132 12.7805 123.475 12.3645 122.751 12.1057C122.028 11.8469 121.255 11.7518 120.491 11.8273C119.726 11.9027 118.987 12.1468 118.328 12.542C117.668 12.9372 117.105 13.4736 116.678 14.1127C116.251 14.7518 115.971 15.4776 115.858 16.2379C115.745 16.9981 115.802 17.774 116.025 18.5096C116.248 19.2451 116.632 19.9221 117.148 20.4918C117.664 21.0614 118.299 21.5096 119.009 21.804ZM115.336 11.3362C116.08 10.5925 116.963 10.0025 117.935 9.59993C118.906 9.19739 119.948 8.99021 121 8.99021C122.052 8.99021 123.093 9.19739 124.065 9.59993C125.037 10.0025 125.92 10.5925 126.664 11.3362C127.407 12.08 127.997 12.963 128.4 13.9348C128.803 14.9066 129.01 15.9482 129.01 17.0001C129.01 18.052 128.803 19.0935 128.4 20.0653C127.997 21.0371 127.407 21.9201 126.664 22.6639C125.162 24.1661 123.124 25.01 121 25.01C118.875 25.01 116.838 24.1661 115.336 22.6639C113.834 21.1618 112.99 19.1244 112.99 17.0001C112.99 14.8757 113.834 12.8384 115.336 11.3362ZM130.786 10.1831C130.97 10.0092 131.118 9.80013 131.22 9.56821C131.322 9.33629 131.377 9.08625 131.38 8.8329C131.384 8.57954 131.337 8.32802 131.242 8.09323C131.146 7.85843 131.005 7.64514 130.826 7.46597C130.647 7.2868 130.433 7.1454 130.199 7.05015C129.964 6.95489 129.712 6.90771 129.459 6.91141C129.205 6.9151 128.955 6.96959 128.724 7.07165C128.492 7.17371 128.283 7.32127 128.109 7.50558C127.771 7.86404 127.585 8.34017 127.593 8.8329C127.6 9.32563 127.799 9.79616 128.147 10.1446C128.496 10.4931 128.966 10.692 129.459 10.6992C129.952 10.7064 130.428 10.5212 130.786 10.1831Z" fill="#0F9B93"/>
</svg>
