<svg width="138" height="36" viewBox="0 0 138 36" fill="none" xmlns="http://www.w3.org/2000/svg">
<path d="M21.182 32.2H26.163V19.79H30.328L30.957 14.962H26.163V11.868C26.163 10.474 26.554 9.522 28.56 9.522H31.127V5.187C30.685 5.136 29.172 5 27.404 5C23.698 5 21.182 7.261 21.182 11.392V14.962H17V19.79H21.182V32.2Z" fill="#0F9B93"/>
<path d="M85.4942 8.99391C84.3113 9.51807 83.0406 9.87224 81.7046 10.0323C83.0831 9.20753 84.1143 7.9094 84.606 6.38016C83.3109 7.14939 81.8936 7.69085 80.4155 7.98099C79.4215 6.91972 78.105 6.21629 76.6703 5.97991C75.2356 5.74354 73.763 5.98745 72.4811 6.67377C71.1992 7.36009 70.1797 8.45042 69.581 9.77549C68.9823 11.1006 68.8378 12.5862 69.17 14.0018C66.5459 13.8701 63.9788 13.188 61.6353 11.9999C59.2919 10.8119 57.2244 9.1443 55.5671 7.10549C55.0005 8.08299 54.6746 9.21632 54.6746 10.4233C54.674 11.5099 54.9416 12.5798 55.4536 13.5382C55.9657 14.4966 56.7064 15.3137 57.61 15.9172C56.562 15.8838 55.5372 15.6007 54.6208 15.0912V15.1762C54.6207 16.7002 55.1479 18.1773 56.1128 19.3568C57.0778 20.5364 58.4211 21.3457 59.9149 21.6476C58.9428 21.9107 57.9235 21.9494 56.9342 21.7609C57.3557 23.0722 58.1766 24.2189 59.2822 25.0404C60.3877 25.8619 61.7224 26.3172 63.0996 26.3424C60.7618 28.1776 57.8747 29.173 54.9027 29.1687C54.3763 29.1688 53.8503 29.1381 53.3274 29.0766C56.3442 31.0162 59.8559 32.0457 63.4424 32.0417C75.5832 32.0417 82.2203 21.9862 82.2203 13.2652C82.2203 12.9818 82.2132 12.6957 82.2005 12.4123C83.4915 11.4787 84.6059 10.3226 85.4914 8.99816L85.4942 8.99391V8.99391Z" fill="#0F9B93"/>
<path fill-rule="evenodd" clip-rule="evenodd" d="M114.575 1.51C116.237 1.4335 116.767 1.4165 121 1.4165C125.233 1.4165 125.763 1.43492 127.423 1.51C129.084 1.58509 130.217 1.85 131.209 2.23392C132.247 2.62634 133.189 3.23975 133.968 4.03309C134.762 4.81084 135.374 5.7515 135.765 6.79134C136.15 7.783 136.413 8.91634 136.49 10.5738C136.566 12.2384 136.583 12.7683 136.583 16.9998C136.583 21.2328 136.565 21.7627 136.49 23.4244C136.415 25.0819 136.15 26.2153 135.765 27.2069C135.374 28.2469 134.761 29.1891 133.968 29.968C133.189 30.7613 132.247 31.3733 131.209 31.7643C130.217 32.1497 129.084 32.4132 127.426 32.4897C125.763 32.5662 125.233 32.5832 121 32.5832C116.767 32.5832 116.237 32.5648 114.575 32.4897C112.918 32.4146 111.785 32.1497 110.793 31.7643C109.753 31.3733 108.811 30.7603 108.032 29.968C107.239 29.1898 106.626 28.248 106.234 27.2083C105.85 26.2167 105.587 25.0833 105.51 23.4258C105.434 21.7613 105.417 21.2314 105.417 16.9998C105.417 12.7668 105.435 12.237 105.51 10.5767C105.585 8.91634 105.85 7.783 106.234 6.79134C106.626 5.75162 107.24 4.80986 108.033 4.03167C108.811 3.23905 109.752 2.62555 110.792 2.23392C111.783 1.85 112.917 1.5865 114.574 1.51H114.575ZM127.297 4.315C125.654 4.23992 125.161 4.22434 121 4.22434C116.839 4.22434 116.346 4.23992 114.703 4.315C113.183 4.38442 112.358 4.638 111.809 4.85192C111.082 5.13525 110.562 5.471 110.017 6.01642C109.5 6.51941 109.102 7.13174 108.852 7.8085C108.638 8.35817 108.385 9.18267 108.315 10.7028C108.24 12.3461 108.225 12.8391 108.225 16.9998C108.225 21.1606 108.24 21.6536 108.315 23.2969C108.385 24.817 108.638 25.6415 108.852 26.1912C109.101 26.8669 109.5 27.4803 110.017 27.9833C110.52 28.5003 111.133 28.8984 111.809 29.1478C112.358 29.3617 113.183 29.6153 114.703 29.6847C116.346 29.7598 116.838 29.7753 121 29.7753C125.162 29.7753 125.654 29.7598 127.297 29.6847C128.817 29.6153 129.642 29.3617 130.191 29.1478C130.918 28.8644 131.438 28.5287 131.983 27.9833C132.501 27.4803 132.899 26.8669 133.148 26.1912C133.362 25.6415 133.615 24.817 133.685 23.2969C133.76 21.6536 133.776 21.1606 133.776 16.9998C133.776 12.8391 133.76 12.3461 133.685 10.7028C133.615 9.18267 133.362 8.35817 133.148 7.8085C132.865 7.08175 132.529 6.56184 131.983 6.01642C131.48 5.49944 130.868 5.10155 130.191 4.85192C129.642 4.638 128.817 4.38442 127.297 4.315ZM119.01 21.8038C120.121 22.2665 121.359 22.3289 122.512 21.9804C123.664 21.632 124.66 20.8941 125.329 19.893C125.998 18.8919 126.298 17.6896 126.179 16.4914C126.06 15.2932 125.529 14.1735 124.676 13.3236C124.133 12.7803 123.475 12.3642 122.752 12.1055C122.028 11.8467 121.256 11.7516 120.491 11.827C119.726 11.9025 118.987 12.1466 118.328 12.5418C117.669 12.937 117.105 13.4734 116.678 14.1125C116.251 14.7515 115.971 15.4773 115.858 16.2376C115.745 16.9979 115.803 17.7738 116.026 18.5093C116.248 19.2449 116.632 19.9219 117.148 20.4915C117.664 21.0612 118.3 21.5093 119.01 21.8038ZM115.336 11.336C116.08 10.5922 116.963 10.0022 117.935 9.59968C118.907 9.19715 119.948 8.98997 121 8.98997C122.052 8.98997 123.094 9.19715 124.065 9.59968C125.037 10.0022 125.92 10.5922 126.664 11.336C127.408 12.0798 127.998 12.9628 128.4 13.9346C128.803 14.9064 129.01 15.948 129.01 16.9998C129.01 18.0517 128.803 19.0933 128.4 20.0651C127.998 21.0369 127.408 21.9199 126.664 22.6637C125.162 24.1658 123.124 25.0097 121 25.0097C118.876 25.0097 116.838 24.1658 115.336 22.6637C113.834 21.1615 112.99 19.1242 112.99 16.9998C112.99 14.8755 113.834 12.8381 115.336 11.336ZM130.786 10.1828C130.971 10.009 131.118 9.79988 131.22 9.56797C131.322 9.33605 131.377 9.08601 131.381 8.83265C131.384 8.5793 131.337 8.32778 131.242 8.09298C131.147 7.85819 131.005 7.64489 130.826 7.46573C130.647 7.28656 130.434 7.14516 130.199 7.0499C129.964 6.95465 129.712 6.90747 129.459 6.91116C129.206 6.91486 128.956 6.96935 128.724 7.07141C128.492 7.17347 128.283 7.32102 128.109 7.50534C127.771 7.8638 127.586 8.33993 127.593 8.83265C127.6 9.32538 127.799 9.79592 128.147 10.1444C128.496 10.4928 128.966 10.6917 129.459 10.6989C129.952 10.7061 130.428 10.521 130.786 10.1828Z" fill="#0F9B93"/>
</svg>
