<svg width="72" height="72" viewBox="0 0 72 72" fill="none" xmlns="http://www.w3.org/2000/svg">
<path d="M69.5318 2.04027C68.4565 2.04027 67.202 2.04027 66.1266 2.04027C58.7785 2.39846 51.7889 4.01029 45.1577 7.23395C37.0927 10.9949 30.2823 16.3677 24.9056 23.5313C21.142 28.3668 18.4536 33.7396 16.4822 39.4706C16.303 39.8287 16.4822 40.0078 16.6614 40.1869C18.2744 41.7988 19.8874 43.4106 21.5004 45.0224C21.6796 45.2015 21.8589 45.5597 21.8589 45.9179C21.8589 46.2761 21.6796 46.6342 21.3212 46.8133C20.9627 46.9924 20.4251 46.9924 20.2459 46.6342C19.3497 45.7388 18.6329 45.0224 17.7368 44.127C16.6614 43.0524 15.7653 41.9778 14.69 41.0824C14.3315 40.7242 14.1523 40.1869 14.3315 39.6496C16.6614 32.6651 20.0666 26.2177 24.9056 20.4868C29.7446 14.5767 35.6589 9.92033 42.2901 6.51758C48.3837 3.29392 55.0149 1.3239 61.8253 0.428443C64.6929 0.0702587 67.5604 -0.108833 70.4279 0.0702588C71.3241 0.0702588 71.5033 0.428443 71.6825 1.3239C72.0409 12.9649 69.1734 23.7104 62.9006 33.7396C56.6279 43.5897 48.0252 50.9325 37.2719 55.5889C35.6589 56.3052 33.8667 56.8425 32.0745 57.5589C31.5368 57.738 31.1784 57.738 30.8199 57.2007C29.0277 55.4098 27.0563 53.4398 25.2641 51.6488C24.9056 51.2906 24.7264 50.7534 25.0848 50.2161C25.4433 49.6788 26.1602 49.6788 26.6978 50.2161C28.3108 51.8279 29.9238 53.4398 31.5368 55.0516C31.8953 55.4098 32.0745 55.4098 32.4329 55.2307C40.3187 52.5443 47.3083 48.2461 53.2227 42.5151C60.2123 35.7096 64.8721 27.6505 67.5604 18.5168C68.9942 13.5022 69.7111 8.3085 69.7111 2.93573C69.7111 2.57755 69.5318 2.39846 69.5318 2.04027Z" fill="#0F9B93"/>
<path d="M59.6746 22.994C59.6746 29.0831 54.8356 33.9186 48.7421 33.9186C42.6486 33.9186 37.8096 29.0831 37.8096 22.994C37.8096 17.0839 42.6486 12.0693 48.5629 12.0693C54.8356 12.0693 59.6746 16.9048 59.6746 22.994ZM57.524 23.1731C57.524 18.1585 53.5811 14.2184 48.5629 14.2184C43.5447 14.2184 39.6018 18.1585 39.6018 23.1731C39.6018 28.1876 43.5447 32.1277 48.5629 32.1277C53.5811 31.9486 57.524 28.0085 57.524 23.1731Z" fill="#0F9B93"/>
<path d="M32.2539 68.8416C33.5084 68.1253 34.763 67.2298 35.8383 66.3343C39.4228 63.1107 41.3942 59.1706 42.2903 54.5143C42.4695 53.7979 42.828 53.4397 43.3656 53.4397C44.0825 53.4397 44.441 53.977 44.441 54.6933C44.2617 55.5888 44.0825 56.6634 43.7241 57.5588C41.7526 63.648 38.1682 68.1253 32.6123 71.1698C31.3578 71.8862 30.8201 71.528 30.6409 70.2744C29.924 66.5134 29.2071 62.5734 28.4902 58.8125C28.4902 58.4543 28.4902 58.0961 28.4902 57.917C28.6695 57.5588 29.0279 57.3797 29.5656 57.3797C29.924 57.3797 30.2825 57.7379 30.4617 58.0961C30.6409 59.1706 30.8201 60.2452 31.1786 61.4988C31.3578 64.0061 31.8954 66.3343 32.2539 68.8416Z" fill="#0F9B93"/>
<path d="M2.68219 39.2914C3.75752 39.4705 4.83285 39.6496 5.72896 39.8287C8.23806 40.366 10.7472 40.7241 13.077 41.2614C13.2563 41.2614 13.2563 41.2614 13.4355 41.2614C13.9732 41.4405 14.3316 41.9778 14.1524 42.5151C13.9732 43.0523 13.6147 43.4105 12.8978 43.2314C11.4641 42.8733 9.85106 42.6942 8.41728 42.336C6.0874 41.7987 3.75752 41.4405 1.24841 40.9032C1.06919 40.9032 1.06919 40.9032 0.88997 40.9032C-0.00613915 40.7241 -0.185361 40.1869 0.173083 39.2914C1.24841 37.3214 2.50297 35.3514 4.11596 33.7395C7.52117 30.1577 11.6433 28.1877 16.303 27.1131C16.4823 27.1131 16.6615 27.1131 16.6615 26.934C17.1992 26.7549 17.7368 27.1131 17.916 27.6504C18.0953 28.1877 17.7368 28.725 17.0199 28.9041C15.9446 29.2622 14.69 29.4413 13.6147 29.7995C8.95495 31.4113 5.37051 34.2768 2.68219 38.3959C2.86141 38.9332 2.86141 39.1123 2.68219 39.2914Z" fill="#0F9B93"/>
<path d="M15.4067 55.2307C15.586 55.0516 15.7652 54.6934 15.9444 54.5143C19.3496 51.1116 22.5756 47.8879 25.9808 44.4852C27.2354 43.2315 28.3107 42.157 29.5653 40.9033C30.1029 40.3661 30.6406 40.3661 31.1783 40.7242C31.5367 41.0824 31.5367 41.7988 30.999 42.3361C27.0562 46.2761 23.1133 50.3952 18.9912 54.3353C18.4535 54.8725 17.9158 55.5889 17.199 56.1262C16.8405 56.4844 16.4821 56.4844 16.1236 56.3053C15.586 56.1262 15.4067 55.768 15.4067 55.2307Z" fill="#0F9B93"/>
<path d="M10.7472 59.887C11.1056 60.0661 11.4641 60.2451 11.6433 60.6033C11.8225 60.9615 11.6433 61.3197 11.4641 61.6779C11.2849 61.857 10.9264 62.2152 10.7472 62.5733C8.59654 64.7225 6.44588 67.0507 4.11599 69.1998C3.75755 69.3789 3.57833 69.5579 3.21989 69.5579C2.86144 69.5579 2.503 69.3788 2.32378 69.0207C2.14456 68.4834 2.14456 68.1252 2.503 67.767C3.93677 66.3343 5.37055 64.9015 6.80432 63.4688C7.87965 62.3943 8.77576 61.4988 9.85109 60.4242C10.2095 60.2451 10.3888 60.0661 10.7472 59.887Z" fill="#0F9B93"/>
<path d="M9.13408 52.5442C10.0302 52.5442 10.5679 53.4396 10.2094 53.9769C10.0302 54.156 10.0302 54.3351 9.85097 54.5142C7.52109 56.8424 5.1912 59.1706 2.86132 61.4988L2.6821 61.6779C2.14443 62.0361 1.60677 62.2152 1.24832 61.6779C0.889881 61.3197 0.889881 60.6033 1.24832 60.2452C3.04054 58.4542 4.83276 56.6633 6.62498 54.8724C7.34186 54.156 7.87953 53.6187 8.59642 53.0815C8.77564 52.7233 9.13408 52.5442 9.13408 52.5442Z" fill="#0F9B93"/>
<path d="M19.1709 62.5735C19.1709 62.7526 18.9917 62.9317 18.8125 63.2899C16.3034 65.7972 13.9735 68.1254 11.4644 70.6327C10.9267 71.17 10.389 71.17 9.85138 70.6327C9.49293 70.2745 9.49293 69.5581 10.0306 69.1999C12.5397 66.6927 14.8696 64.3644 17.3787 61.8572C17.7371 61.499 18.0956 61.3199 18.6332 61.499C18.9917 61.6781 19.1709 61.8572 19.1709 62.5735Z" fill="#0F9B93"/>
</svg>
