<svg width="138" height="36" viewBox="0 0 138 36" fill="none" xmlns="http://www.w3.org/2000/svg">
<path d="M21.182 32.2H26.163V19.79H30.328L30.957 14.962H26.163V11.868C26.163 10.474 26.554 9.522 28.56 9.522H31.127V5.187C30.685 5.136 29.172 5 27.404 5C23.698 5 21.182 7.261 21.182 11.392V14.962H17V19.79H21.182V32.2Z" fill="#0F9B93"/>
<path d="M85.4945 8.9944C84.3116 9.51856 83.0408 9.87273 81.7049 10.0328C83.0833 9.20802 84.1146 7.90989 84.6062 6.38065C83.3112 7.14988 81.8938 7.69134 80.4157 7.98148C79.4218 6.9202 78.1052 6.21677 76.6705 5.9804C75.2358 5.74403 73.7632 5.98793 72.4813 6.67425C71.1994 7.36057 70.18 8.45091 69.5813 9.77598C68.9826 11.101 68.8381 12.5867 69.1702 14.0023C66.5461 13.8706 63.979 13.1885 61.6356 12.0004C59.2921 10.8123 57.2247 9.14479 55.5674 7.10598C55.0007 8.08348 54.6749 9.21681 54.6749 10.4238C54.6743 11.5104 54.9418 12.5803 55.4539 13.5387C55.9659 14.497 56.7066 15.3142 57.6102 15.9176C56.5623 15.8843 55.5375 15.6011 54.6211 15.0917V15.1767C54.6209 16.7007 55.1481 18.1778 56.1131 19.3573C57.078 20.5369 58.4214 21.3462 59.9151 21.6481C58.943 21.9112 57.9238 21.9499 56.9345 21.7614C57.3559 23.0727 58.1769 24.2194 59.2824 25.0409C60.3879 25.8624 61.7227 26.3177 63.0998 26.3429C60.7621 28.1781 57.875 29.1735 54.903 29.1691C54.3765 29.1693 53.8505 29.1385 53.3276 29.0771C56.3444 31.0167 59.8561 32.0461 63.4426 32.0421C75.5835 32.0421 82.2206 21.9866 82.2206 13.2656C82.2206 12.9823 82.2135 12.6961 82.2007 12.4128C83.4917 11.4792 84.6061 10.3231 85.4916 8.99865L85.4945 8.9944Z" fill="#0F9B93"/>
<path fill-rule="evenodd" clip-rule="evenodd" d="M114.575 1.51049C116.237 1.43399 116.767 1.41699 121 1.41699C125.233 1.41699 125.763 1.43541 127.423 1.51049C129.083 1.58558 130.217 1.85049 131.208 2.23441C132.247 2.62683 133.189 3.24024 133.968 4.03358C134.761 4.81133 135.373 5.75199 135.764 6.79183C136.15 7.78349 136.413 8.91683 136.49 10.5743C136.566 12.2389 136.583 12.7687 136.583 17.0003C136.583 21.2333 136.565 21.7632 136.49 23.4249C136.415 25.0824 136.15 26.2157 135.764 27.2074C135.373 28.2474 134.76 29.1896 133.968 29.9685C133.189 30.7618 132.247 31.3738 131.208 31.7648C130.217 32.1502 129.083 32.4137 127.426 32.4902C125.763 32.5667 125.233 32.5837 121 32.5837C116.767 32.5837 116.237 32.5652 114.575 32.4902C112.918 32.4151 111.784 32.1502 110.793 31.7648C109.753 31.3738 108.811 30.7608 108.032 29.9685C107.239 29.1903 106.625 28.2485 106.234 27.2088C105.85 26.2172 105.587 25.0838 105.51 23.4263C105.434 21.7617 105.417 21.2319 105.417 17.0003C105.417 12.7673 105.435 12.2375 105.51 10.5772C105.585 8.91683 105.85 7.78349 106.234 6.79183C106.626 5.75211 107.24 4.81035 108.033 4.03216C108.811 3.23954 109.752 2.62604 110.791 2.23441C111.783 1.85049 112.916 1.58699 114.574 1.51049H114.575ZM127.297 4.31549C125.654 4.24041 125.161 4.22483 121 4.22483C116.839 4.22483 116.346 4.24041 114.703 4.31549C113.183 4.38491 112.358 4.63849 111.809 4.85241C111.082 5.13574 110.562 5.47149 110.016 6.01691C109.499 6.5199 109.102 7.13223 108.852 7.80899C108.638 8.35866 108.384 9.18316 108.315 10.7032C108.24 12.3466 108.224 12.8396 108.224 17.0003C108.224 21.1611 108.24 21.6541 108.315 23.2974C108.384 24.8175 108.638 25.642 108.852 26.1917C109.101 26.8674 109.499 27.4808 110.016 27.9837C110.519 28.5008 111.133 28.8989 111.809 29.1482C112.358 29.3622 113.183 29.6157 114.703 29.6852C116.346 29.7602 116.838 29.7758 121 29.7758C125.162 29.7758 125.654 29.7602 127.297 29.6852C128.817 29.6157 129.642 29.3622 130.191 29.1482C130.918 28.8649 131.438 28.5292 131.983 27.9837C132.5 27.4808 132.898 26.8674 133.148 26.1917C133.362 25.642 133.615 24.8175 133.685 23.2974C133.76 21.6541 133.775 21.1611 133.775 17.0003C133.775 12.8396 133.76 12.3466 133.685 10.7032C133.615 9.18316 133.362 8.35866 133.148 7.80899C132.864 7.08224 132.529 6.56233 131.983 6.01691C131.48 5.49993 130.868 5.10204 130.191 4.85241C129.642 4.63849 128.817 4.38491 127.297 4.31549ZM119.009 21.8042C120.121 22.267 121.359 22.3294 122.511 21.9809C123.664 21.6324 124.66 20.8946 125.329 19.8935C125.998 18.8924 126.298 17.6901 126.179 16.4919C126.06 15.2937 125.529 14.174 124.676 13.3241C124.132 12.7808 123.475 12.3647 122.751 12.106C122.028 11.8472 121.255 11.7521 120.491 11.8275C119.726 11.903 118.987 12.1471 118.328 12.5423C117.668 12.9374 117.105 13.4739 116.678 14.1129C116.251 14.752 115.971 15.4778 115.858 16.2381C115.745 16.9984 115.802 17.7742 116.025 18.5098C116.248 19.2454 116.632 19.9224 117.148 20.492C117.664 21.0617 118.299 21.5098 119.009 21.8042ZM115.336 11.3365C116.08 10.5927 116.963 10.0027 117.935 9.60017C118.906 9.19764 119.948 8.99046 121 8.99046C122.052 8.99046 123.093 9.19764 124.065 9.60017C125.037 10.0027 125.92 10.5927 126.664 11.3365C127.407 12.0803 127.997 12.9633 128.4 13.9351C128.803 14.9069 129.01 15.9485 129.01 17.0003C129.01 18.0522 128.803 19.0938 128.4 20.0656C127.997 21.0374 127.407 21.9204 126.664 22.6642C125.162 24.1663 123.124 25.0102 121 25.0102C118.875 25.0102 116.838 24.1663 115.336 22.6642C113.834 21.162 112.99 19.1247 112.99 17.0003C112.99 14.876 113.834 12.8386 115.336 11.3365ZM130.786 10.1833C130.97 10.0095 131.118 9.80037 131.22 9.56845C131.322 9.33654 131.377 9.0865 131.38 8.83314C131.384 8.57979 131.337 8.32827 131.242 8.09347C131.146 7.85868 131.005 7.64538 130.826 7.46621C130.647 7.28705 130.433 7.14565 130.199 7.05039C129.964 6.95514 129.712 6.90796 129.459 6.91165C129.205 6.91534 128.955 6.96983 128.724 7.0719C128.492 7.17396 128.283 7.32151 128.109 7.50583C127.771 7.86428 127.585 8.34041 127.593 8.83314C127.6 9.32587 127.799 9.7964 128.147 10.1449C128.496 10.4933 128.966 10.6922 129.459 10.6994C129.952 10.7066 130.428 10.5215 130.786 10.1833Z" fill="#0F9B93"/>
</svg>
