<svg width="90" height="90" viewBox="0 0 90 90" fill="none" xmlns="http://www.w3.org/2000/svg">
<circle cx="45" cy="45" r="44.5" fill="#F9F9F9" stroke="#0F9B93"/>
<path fill-rule="evenodd" clip-rule="evenodd" d="M44.5 66C32.6253 66 23 56.3747 23 44.5C23 32.6253 32.6253 23 44.5 23C56.3747 23 66 32.6253 66 44.5C66 56.3747 56.3747 66 44.5 66ZM44.8763 54.343C46.2576 55.2984 48.0099 55.8668 49.9073 55.8668C50.3789 55.8668 50.8452 55.8318 51.3034 55.7633C51.4606 55.8278 51.6125 55.9071 51.7992 56.0146C52.2024 56.2511 52.7412 56.6139 53.4117 57.103C53.9613 57.5048 54.7394 57.1165 54.7394 56.4406V54.4773C55.0216 54.2946 55.2876 54.0971 55.5389 53.8834C57.0573 52.5961 57.9375 50.8358 57.9375 48.9478C57.9375 47.7048 57.5613 46.5425 56.9001 45.5387C56.6917 46.2515 56.4093 46.9406 56.0576 47.5947C56.1973 48.0287 56.2713 48.4815 56.2713 48.9478C56.2713 50.3372 55.6155 51.6488 54.4545 52.6324C54.155 52.8854 53.8324 53.1099 53.491 53.3029C53.3646 53.3743 53.2593 53.478 53.1859 53.6033C53.1125 53.7287 53.0736 53.8712 53.0731 54.0164V54.8549C52.2763 54.3443 51.7294 54.1038 51.3128 54.1038C51.266 54.1039 51.2192 54.108 51.1731 54.1159C50.0056 54.3111 48.8088 54.2329 47.6766 53.8874C46.7597 54.1256 45.8227 54.2785 44.8776 54.3443L44.8763 54.343ZM34.8438 50.4165C35.2869 50.7915 35.7557 51.1349 36.2467 51.4445V54.7931C36.2467 55.6397 37.2209 56.1234 37.9076 55.6209C39.8022 54.2368 41.1191 53.4548 41.4483 53.3768C42.2089 53.4978 42.9856 53.5582 43.7703 53.5582C50.7578 53.5582 56.4795 48.7113 56.4795 42.647C56.4795 36.5813 50.7565 31.7344 43.7703 31.7344C36.7842 31.7344 31.0625 36.5813 31.0625 42.6456C31.0625 45.6153 32.4466 48.3848 34.8438 50.4165ZM41.494 51.3115C40.8181 51.3115 39.8305 51.7885 38.3308 52.795V50.864C38.3302 50.6822 38.2813 50.5039 38.1893 50.3471C38.0972 50.1904 37.9652 50.0609 37.8068 49.9718C37.2374 49.6495 36.6993 49.2748 36.1997 48.8524C34.2472 47.2009 33.1453 44.9918 33.1453 42.6456C33.1453 37.7947 37.8699 33.793 43.7703 33.793C49.6721 33.793 54.3954 37.7947 54.3954 42.6456C54.3954 47.4966 49.6721 51.4996 43.7703 51.4996C43.0582 51.4996 42.3554 51.4405 41.6687 51.3249C41.611 51.3156 41.5525 51.3111 41.494 51.3115V51.3115ZM38.3537 44.7056C39.2742 44.7056 40.0199 43.9665 40.0199 43.0582C40.0199 42.1484 39.2742 41.4107 38.3537 41.4107C37.4332 41.4107 36.6874 42.1484 36.6874 43.0582C36.6874 43.9679 37.4332 44.7056 38.3537 44.7056ZM43.7703 44.7056C44.6908 44.7056 45.4366 43.9665 45.4366 43.0582C45.4366 42.1484 44.6908 41.4107 43.7703 41.4107C42.8499 41.4107 42.1041 42.1484 42.1041 43.0582C42.1041 43.9679 42.8499 44.7056 43.7703 44.7056V44.7056ZM49.187 44.7056C50.1075 44.7056 50.8533 43.9665 50.8533 43.0582C50.8533 42.1484 50.1075 41.4107 49.187 41.4107C48.2665 41.4107 47.5207 42.1484 47.5207 43.0582C47.5207 43.9679 48.2665 44.7056 49.187 44.7056Z" fill="#0F9B93"/>
</svg>
