<svg width="120" height="120" viewBox="0 0 120 120" fill="none" xmlns="http://www.w3.org/2000/svg">
<g filter="url(#filter0_d_6_2276)">
<circle cx="60" cy="60" r="50" fill="white"/>
</g>
<path d="M52.6389 43.6702C52.3637 43.9449 52.1454 44.2711 51.9964 44.6302C51.8474 44.9894 51.7708 45.3744 51.7708 45.7632C51.7708 46.152 51.8474 46.537 51.9964 46.8961C52.1454 47.2553 52.3637 47.5815 52.6389 47.8561L64.1577 59.3749L52.6389 70.8936C52.0839 71.4487 51.772 72.2016 51.772 72.9866C51.772 73.7716 52.0839 74.5245 52.6389 75.0796C53.194 75.6347 53.9469 75.9465 54.7319 75.9465C55.5169 75.9465 56.2698 75.6347 56.8249 75.0796L70.4514 61.453C70.7267 61.1784 70.945 60.8521 71.094 60.493C71.243 60.1339 71.3196 59.7489 71.3196 59.36C71.3196 58.9712 71.243 58.5862 71.094 58.2271C70.945 57.868 70.7267 57.5417 70.4514 57.2671L56.8249 43.6405C55.6968 42.5124 53.7968 42.5124 52.6389 43.6702Z" fill="black"/>
<defs>
<filter id="filter0_d_6_2276" x="0" y="0" width="120" height="120" filterUnits="userSpaceOnUse" color-interpolation-filters="sRGB">
<feFlood flood-opacity="0" result="BackgroundImageFix"/>
<feColorMatrix in="SourceAlpha" type="matrix" values="0 0 0 0 0 0 0 0 0 0 0 0 0 0 0 0 0 0 127 0" result="hardAlpha"/>
<feOffset/>
<feGaussianBlur stdDeviation="5"/>
<feComposite in2="hardAlpha" operator="out"/>
<feColorMatrix type="matrix" values="0 0 0 0 0 0 0 0 0 0 0 0 0 0 0 0 0 0 0.1 0"/>
<feBlend mode="normal" in2="BackgroundImageFix" result="effect1_dropShadow_6_2276"/>
<feBlend mode="normal" in="SourceGraphic" in2="effect1_dropShadow_6_2276" result="shape"/>
</filter>
</defs>
</svg>
