<svg width="138" height="36" viewBox="0 0 138 36" fill="none" xmlns="http://www.w3.org/2000/svg">
<path d="M21.182 32.2H26.163V19.79H30.328L30.957 14.962H26.163V11.868C26.163 10.474 26.554 9.522 28.56 9.522H31.127V5.187C30.685 5.136 29.172 5 27.404 5C23.698 5 21.182 7.261 21.182 11.392V14.962H17V19.79H21.182V32.2Z" fill="#0F9B93"/>
<path d="M85.4942 8.99409C84.3113 9.51826 83.0406 9.87242 81.7046 10.0325C83.0831 9.20771 84.1143 7.90958 84.606 6.38034C83.3109 7.14958 81.8936 7.69103 80.4155 7.98117C79.4215 6.9199 78.105 6.21647 76.6703 5.9801C75.2356 5.74372 73.763 5.98763 72.4811 6.67395C71.1992 7.36027 70.1797 8.4506 69.581 9.77567C68.9823 11.1007 68.8378 12.5864 69.17 14.002C66.5459 13.8703 63.9788 13.1882 61.6353 12.0001C59.2919 10.812 57.2244 9.14449 55.5671 7.10567C55.0005 8.08317 54.6746 9.21651 54.6746 10.4235C54.674 11.5101 54.9416 12.58 55.4536 13.5384C55.9657 14.4967 56.7064 15.3139 57.61 15.9173C56.562 15.884 55.5372 15.6008 54.6208 15.0914V15.1764C54.6207 16.7004 55.1479 18.1775 56.1128 19.357C57.0778 20.5365 58.4211 21.3459 59.9149 21.6478C58.9428 21.9109 57.9235 21.9496 56.9342 21.7611C57.3557 23.0724 58.1766 24.219 59.2822 25.0406C60.3877 25.8621 61.7224 26.3173 63.0996 26.3426C60.7618 28.1778 57.8747 29.1732 54.9027 29.1688C54.3763 29.169 53.8503 29.1382 53.3274 29.0768C56.3442 31.0164 59.8559 32.0458 63.4424 32.0418C75.5832 32.0418 82.2203 21.9863 82.2203 13.2653C82.2203 12.982 82.2132 12.6958 82.2005 12.4125C83.4915 11.4789 84.6059 10.3228 85.4914 8.99834L85.4942 8.99409V8.99409Z" fill="#0F9B93"/>
<path fill-rule="evenodd" clip-rule="evenodd" d="M114.575 1.51016C116.237 1.43366 116.767 1.41666 121 1.41666C125.233 1.41666 125.763 1.43507 127.423 1.51016C129.083 1.58524 130.217 1.85016 131.208 2.23407C132.247 2.62649 133.189 3.23991 133.968 4.03324C134.761 4.81099 135.373 5.75166 135.764 6.79149C136.15 7.78316 136.413 8.91649 136.49 10.574C136.566 12.2386 136.583 12.7684 136.583 17C136.583 21.233 136.565 21.7628 136.49 23.4246C136.415 25.0821 136.15 26.2154 135.764 27.2071C135.373 28.247 134.76 29.1893 133.968 29.9682C133.189 30.7615 132.247 31.3735 131.208 31.7645C130.217 32.1498 129.083 32.4133 127.426 32.4898C125.763 32.5663 125.233 32.5833 121 32.5833C116.767 32.5833 116.237 32.5649 114.575 32.4898C112.918 32.4147 111.785 32.1498 110.793 31.7645C109.753 31.3734 108.811 30.7604 108.032 29.9682C107.239 29.1899 106.626 28.2482 106.234 27.2085C105.85 26.2168 105.587 25.0835 105.51 23.426C105.434 21.7614 105.417 21.2316 105.417 17C105.417 12.767 105.435 12.2372 105.51 10.5768C105.585 8.91649 105.85 7.78316 106.234 6.79149C106.626 5.75177 107.24 4.81002 108.033 4.03182C108.811 3.2392 109.752 2.6257 110.791 2.23407C111.783 1.85016 112.916 1.58666 114.574 1.51016H114.575ZM127.297 4.31516C125.654 4.24007 125.161 4.22449 121 4.22449C116.839 4.22449 116.346 4.24007 114.703 4.31516C113.183 4.38457 112.358 4.63816 111.809 4.85207C111.082 5.13541 110.562 5.47116 110.017 6.01657C109.5 6.51956 109.102 7.13189 108.852 7.80866C108.638 8.35832 108.385 9.18282 108.315 10.7029C108.24 12.3462 108.224 12.8392 108.224 17C108.224 21.1607 108.24 21.6537 108.315 23.2971C108.385 24.8172 108.638 25.6417 108.852 26.1913C109.101 26.8671 109.499 27.4805 110.017 27.9834C110.519 28.5005 111.133 28.8986 111.809 29.1479C112.358 29.3618 113.183 29.6154 114.703 29.6848C116.346 29.7599 116.838 29.7755 121 29.7755C125.162 29.7755 125.654 29.7599 127.297 29.6848C128.817 29.6154 129.642 29.3618 130.191 29.1479C130.918 28.8646 131.438 28.5288 131.983 27.9834C132.5 27.4805 132.899 26.8671 133.148 26.1913C133.362 25.6417 133.615 24.8172 133.685 23.2971C133.76 21.6537 133.775 21.1607 133.775 17C133.775 12.8392 133.76 12.3462 133.685 10.7029C133.615 9.18282 133.362 8.35832 133.148 7.80866C132.865 7.08191 132.529 6.56199 131.983 6.01657C131.48 5.49959 130.868 5.1017 130.191 4.85207C129.642 4.63816 128.817 4.38457 127.297 4.31516ZM119.01 21.8039C120.121 22.2666 121.359 22.3291 122.511 21.9806C123.664 21.6321 124.66 20.8943 125.329 19.8932C125.998 18.892 126.298 17.6897 126.179 16.4916C126.06 15.2934 125.529 14.1737 124.676 13.3237C124.133 12.7804 123.475 12.3644 122.751 12.1056C122.028 11.8468 121.256 11.7518 120.491 11.8272C119.726 11.9026 118.987 12.1467 118.328 12.5419C117.669 12.9371 117.105 13.4735 116.678 14.1126C116.251 14.7517 115.971 15.4775 115.858 16.2378C115.745 16.9981 115.802 17.7739 116.025 18.5095C116.248 19.245 116.632 19.922 117.148 20.4917C117.664 21.0613 118.3 21.5095 119.01 21.8039ZM115.336 11.3362C116.08 10.5924 116.963 10.0024 117.935 9.59984C118.907 9.1973 119.948 8.99012 121 8.99012C122.052 8.99012 123.093 9.1973 124.065 9.59983C125.037 10.0024 125.92 10.5924 126.664 11.3362C127.408 12.0799 127.998 12.9629 128.4 13.9347C128.803 14.9065 129.01 15.9481 129.01 17C129.01 18.0519 128.803 19.0934 128.4 20.0652C127.998 21.037 127.408 21.92 126.664 22.6638C125.162 24.166 123.124 25.0099 121 25.0099C118.876 25.0099 116.838 24.166 115.336 22.6638C113.834 21.1617 112.99 19.1243 112.99 17C112.99 14.8756 113.834 12.8383 115.336 11.3362ZM130.786 10.183C130.971 10.0091 131.118 9.80004 131.22 9.56812C131.322 9.3362 131.377 9.08616 131.38 8.83281C131.384 8.57945 131.337 8.32793 131.242 8.09314C131.147 7.85834 131.005 7.64505 130.826 7.46588C130.647 7.28671 130.433 7.14531 130.199 7.05006C129.964 6.9548 129.712 6.90762 129.459 6.91132C129.206 6.91501 128.956 6.9695 128.724 7.07156C128.492 7.17362 128.283 7.32117 128.109 7.50549C127.771 7.86395 127.586 8.34008 127.593 8.83281C127.6 9.32554 127.799 9.79607 128.147 10.1445C128.496 10.493 128.966 10.6919 129.459 10.6991C129.952 10.7063 130.428 10.5211 130.786 10.183Z" fill="#0F9B93"/>
</svg>
