<svg width="71" height="71" viewBox="0 0 71 71" fill="none" xmlns="http://www.w3.org/2000/svg">
<path d="M41.4167 11.8334C41.4167 13.4026 40.7934 14.9075 39.6838 16.0171C38.5742 17.1267 37.0693 17.7501 35.5001 17.7501C33.9309 17.7501 32.426 17.1267 31.3164 16.0171C30.2068 14.9075 29.5834 13.4026 29.5834 11.8334C29.5834 10.2642 30.2068 8.75929 31.3164 7.6497C32.426 6.54011 33.9309 5.91675 35.5001 5.91675C37.0693 5.91675 38.5742 6.54011 39.6838 7.6497C40.7934 8.75929 41.4167 10.2642 41.4167 11.8334ZM26.6251 27.838C26.3041 28.5968 26.0186 29.5982 25.7908 30.7889C25.1903 33.9189 25.1459 37.3831 25.1459 38.4584C25.1459 39.243 24.8342 39.9955 24.2794 40.5503C23.7246 41.1051 22.9722 41.4167 22.1876 41.4167C21.403 41.4167 20.6505 41.1051 20.0957 40.5503C19.5409 39.9955 19.2292 39.243 19.2292 38.4584C19.2292 37.315 19.2677 33.3834 19.9807 29.6722C20.3327 27.8439 20.8918 25.816 21.8518 24.1741C22.8147 22.5248 24.5469 20.7084 27.2818 20.7084H43.7183C46.4533 20.7084 48.1854 22.5248 49.1484 24.1741C50.1083 25.816 50.6675 27.8424 51.0195 29.6722C51.7325 33.3834 51.7709 37.315 51.7709 38.4584C51.7709 39.243 51.4592 39.9955 50.9044 40.5503C50.3496 41.1051 49.5972 41.4167 48.8126 41.4167C48.028 41.4167 47.2755 41.1051 46.7207 40.5503C46.1659 39.9955 45.8542 39.243 45.8542 38.4584C45.8542 37.3831 45.8099 33.9189 45.2093 30.7889C44.9801 29.5982 44.6961 28.5968 44.3751 27.8395V62.1251C44.3744 62.8896 44.0778 63.6242 43.5474 64.1748C43.0169 64.7254 42.294 65.0493 41.53 65.0786C40.766 65.1079 40.0204 64.8402 39.4494 64.3318C38.8784 63.8234 38.5265 63.1136 38.4673 62.3514L36.9881 43.1222C36.9823 43.0469 36.9793 42.9714 36.9792 42.8959H34.0209C34.0209 42.9713 34.018 43.0468 34.012 43.1222L32.5329 62.3514C32.4737 63.1136 32.1217 63.8234 31.5508 64.3318C30.9798 64.8402 30.2341 65.1079 29.4702 65.0786C28.7062 65.0493 27.9832 64.7254 27.4528 64.1748C26.9224 63.6242 26.6258 62.8896 26.6251 62.1251V27.838Z" fill="#0F9B93"/>
</svg>
