<svg width="16" height="16" viewBox="0 0 16 16" fill="none" xmlns="http://www.w3.org/2000/svg">
<path fill-rule="evenodd" clip-rule="evenodd" d="M14.4001 7.99998C14.4001 9.69736 13.7258 11.3252 12.5256 12.5255C11.3253 13.7257 9.69748 14.4 8.0001 14.4C6.30271 14.4 4.67485 13.7257 3.47461 12.5255C2.27438 11.3252 1.6001 9.69736 1.6001 7.99998C1.6001 6.30259 2.27438 4.67472 3.47461 3.47449C4.67485 2.27426 6.30271 1.59998 8.0001 1.59998C9.69748 1.59998 11.3253 2.27426 12.5256 3.47449C13.7258 4.67472 14.4001 6.30259 14.4001 7.99998V7.99998ZM8.0001 5.59998C7.85954 5.59984 7.72142 5.63674 7.59966 5.70696C7.47789 5.77718 7.37678 5.87825 7.3065 5.99998C7.25575 6.09428 7.18659 6.17743 7.10311 6.2445C7.01963 6.31158 6.92353 6.36121 6.82051 6.39046C6.71749 6.4197 6.60965 6.42797 6.50338 6.41476C6.39711 6.40156 6.29457 6.36715 6.20184 6.31358C6.10912 6.26002 6.02809 6.18838 5.96356 6.10291C5.89904 6.01744 5.85233 5.91989 5.8262 5.81604C5.80007 5.71219 5.79506 5.60415 5.81147 5.49832C5.82787 5.3925 5.86536 5.29104 5.9217 5.19998C6.18587 4.74247 6.59362 4.3849 7.08172 4.18275C7.56981 3.98059 8.11097 3.94512 8.62127 4.08186C9.13157 4.2186 9.5825 4.51989 9.90412 4.93901C10.2257 5.35814 10.4001 5.87167 10.4001 6.39998C10.4002 6.89647 10.2465 7.3808 9.95991 7.78626C9.67336 8.19172 9.26816 8.49837 8.8001 8.66398V8.79998C8.8001 9.01215 8.71581 9.21563 8.56578 9.36566C8.41575 9.51569 8.21227 9.59998 8.0001 9.59998C7.78792 9.59998 7.58444 9.51569 7.43441 9.36566C7.28438 9.21563 7.2001 9.01215 7.2001 8.79998V7.99998C7.2001 7.7878 7.28438 7.58432 7.43441 7.43429C7.58444 7.28426 7.78792 7.19998 8.0001 7.19998C8.21227 7.19998 8.41575 7.11569 8.56578 6.96566C8.71581 6.81563 8.8001 6.61215 8.8001 6.39998C8.8001 6.1878 8.71581 5.98432 8.56578 5.83429C8.41575 5.68426 8.21227 5.59998 8.0001 5.59998ZM8.0001 12C8.21227 12 8.41575 11.9157 8.56578 11.7657C8.71581 11.6156 8.8001 11.4121 8.8001 11.2C8.8001 10.9878 8.71581 10.7843 8.56578 10.6343C8.41575 10.4843 8.21227 10.4 8.0001 10.4C7.78792 10.4 7.58444 10.4843 7.43441 10.6343C7.28438 10.7843 7.2001 10.9878 7.2001 11.2C7.2001 11.4121 7.28438 11.6156 7.43441 11.7657C7.58444 11.9157 7.78792 12 8.0001 12V12Z" fill="#9CA3AF"/>
</svg>
