<svg width="88" height="88" viewBox="0 0 88 88" fill="none" xmlns="http://www.w3.org/2000/svg">
<path d="M85.2501 45.375C85.2504 41.732 84.2169 38.1637 82.2697 35.0848C80.3225 32.0058 77.5416 29.5426 74.2501 27.9813V24.75C74.2477 21.2064 73.1045 17.7577 70.9897 14.9144C68.8749 12.071 65.901 9.98395 62.5079 8.96217C59.1148 7.94039 55.4829 8.03812 52.1496 9.24091C48.8164 10.4437 45.9589 12.6876 44.0001 15.6406C42.0413 12.6876 39.1839 10.4437 35.8507 9.24091C32.5174 8.03812 28.8855 7.94039 25.4924 8.96217C22.0993 9.98395 19.1253 12.071 17.0106 14.9144C14.8958 17.7577 13.7526 21.2064 13.7501 24.75V27.9813C10.4582 29.5422 7.67675 32.0053 5.7291 35.0843C3.78146 38.1632 2.74756 41.7317 2.74756 45.375C2.74756 49.0183 3.78146 52.5868 5.7291 55.6658C7.67675 58.7448 10.4582 61.2079 13.7501 62.7688V63.25C13.7526 66.7936 14.8958 70.2423 17.0106 73.0857C19.1253 75.9291 22.0993 78.0161 25.4924 79.0379C28.8855 80.0596 32.5174 79.9619 35.8507 78.7591C39.1839 77.5563 42.0413 75.3124 44.0001 72.3594C45.9589 75.3124 48.8164 77.5563 52.1496 78.7591C55.4829 79.9619 59.1148 80.0596 62.5079 79.0379C65.901 78.0161 68.8749 75.9291 70.9897 73.0857C73.1045 70.2423 74.2477 66.7936 74.2501 63.25V62.7688C77.5391 61.2042 80.3177 58.7401 82.2644 55.6619C84.2111 52.5837 85.2463 49.0171 85.2501 45.375ZM30.2501 74.25C27.5362 74.2484 24.9187 73.2436 22.9009 71.4288C20.883 69.614 19.6072 67.1173 19.3189 64.4188C20.2058 64.5584 21.1023 64.6274 22.0001 64.625H24.7501C25.4795 64.625 26.179 64.3353 26.6947 63.8196C27.2104 63.3038 27.5001 62.6044 27.5001 61.875C27.5001 61.1457 27.2104 60.4462 26.6947 59.9305C26.179 59.4147 25.4795 59.125 24.7501 59.125H22.0001C18.7597 59.1195 15.6253 57.9697 13.1499 55.8785C10.6746 53.7872 9.01738 50.8889 8.47065 47.6949C7.92393 44.5009 8.52284 41.2164 10.1617 38.4209C11.8006 35.6254 14.3741 33.4986 17.4283 32.4156C17.9627 32.2188 18.4239 31.8628 18.7496 31.3956C19.0754 30.9285 19.2501 30.3727 19.2501 29.8031V24.75C19.2501 21.8326 20.4091 19.0347 22.472 16.9718C24.5349 14.9089 27.3328 13.75 30.2501 13.75C33.1675 13.75 35.9654 14.9089 38.0283 16.9718C40.0912 19.0347 41.2501 21.8326 41.2501 24.75V50.9781C38.2394 48.2457 34.3159 46.7376 30.2501 46.75C29.5208 46.75 28.8213 47.0397 28.3056 47.5555C27.7899 48.0712 27.5001 48.7707 27.5001 49.5C27.5001 50.2294 27.7899 50.9288 28.3056 51.4446C28.8213 51.9603 29.5208 52.25 30.2501 52.25C33.1675 52.25 35.9654 53.4089 38.0283 55.4718C40.0912 57.5347 41.2501 60.3326 41.2501 63.25C41.2501 66.1674 40.0912 68.9653 38.0283 71.0282C35.9654 73.0911 33.1675 74.25 30.2501 74.25ZM66.0001 59.125H63.2501C62.5208 59.125 61.8213 59.4147 61.3056 59.9305C60.7899 60.4462 60.5001 61.1457 60.5001 61.875C60.5001 62.6044 60.7899 63.3038 61.3056 63.8196C61.8213 64.3353 62.5208 64.625 63.2501 64.625H66.0001C66.8979 64.6274 67.7945 64.5584 68.6814 64.4188C68.4555 66.5328 67.6218 68.536 66.2813 70.1861C64.9407 71.8362 63.1506 73.0625 61.1277 73.7165C59.1048 74.3706 56.9357 74.4244 54.8828 73.8715C52.8299 73.3186 50.9813 72.1826 49.5605 70.601C48.1398 69.0194 47.2078 67.0599 46.8773 64.9597C46.5469 62.8595 46.8321 60.7086 47.6986 58.7671C48.565 56.8257 49.9755 55.1769 51.7594 54.0203C53.5433 52.8636 55.6241 52.2488 57.7501 52.25C58.4795 52.25 59.179 51.9603 59.6947 51.4446C60.2104 50.9288 60.5001 50.2294 60.5001 49.5C60.5001 48.7707 60.2104 48.0712 59.6947 47.5555C59.179 47.0397 58.4795 46.75 57.7501 46.75C53.6844 46.7376 49.7609 48.2457 46.7501 50.9781V24.75C46.7501 21.8326 47.9091 19.0347 49.972 16.9718C52.0349 14.9089 54.8328 13.75 57.7501 13.75C60.6675 13.75 63.4654 14.9089 65.5283 16.9718C67.5912 19.0347 68.7501 21.8326 68.7501 24.75V29.8031C68.7502 30.3727 68.9249 30.9285 69.2507 31.3956C69.5764 31.8628 70.0376 32.2188 70.572 32.4156C73.6262 33.4986 76.1997 35.6254 77.8386 38.4209C79.4774 41.2164 80.0763 44.5009 79.5296 47.6949C78.9829 50.8889 77.3257 53.7872 74.8503 55.8785C72.375 57.9697 69.2406 59.1195 66.0001 59.125ZM20.6251 44C19.8958 44 19.1963 43.7103 18.6806 43.1946C18.1649 42.6788 17.8751 41.9794 17.8751 41.25C17.8751 40.5207 18.1649 39.8212 18.6806 39.3055C19.1963 38.7897 19.8958 38.5 20.6251 38.5C22.4457 38.491 24.1892 37.7637 25.4765 36.4764C26.7639 35.189 27.4911 33.4456 27.5001 31.625V28.875C27.5001 28.1457 27.7899 27.4462 28.3056 26.9305C28.8213 26.4147 29.5208 26.125 30.2501 26.125C30.9795 26.125 31.679 26.4147 32.1947 26.9305C32.7104 27.4462 33.0001 28.1457 33.0001 28.875V31.625C33.0001 34.9071 31.6963 38.0547 29.3756 40.3755C27.0548 42.6962 23.9072 44 20.6251 44ZM70.1251 41.25C70.1251 41.9794 69.8354 42.6788 69.3197 43.1946C68.804 43.7103 68.1045 44 67.3751 44C64.0931 44 60.9455 42.6962 58.6247 40.3755C56.3039 38.0547 55.0001 34.9071 55.0001 31.625V28.875C55.0001 28.1457 55.2899 27.4462 55.8056 26.9305C56.3213 26.4147 57.0208 26.125 57.7501 26.125C58.4795 26.125 59.179 26.4147 59.6947 26.9305C60.2104 27.4462 60.5001 28.1457 60.5001 28.875V31.625C60.5092 33.4456 61.2364 35.189 62.5238 36.4764C63.8111 37.7637 65.5546 38.491 67.3751 38.5C68.1045 38.5 68.804 38.7897 69.3197 39.3055C69.8354 39.8212 70.1251 40.5207 70.1251 41.25Z" fill="url(#paint0_linear_3_5655)"/>
<defs>
<linearGradient id="paint0_linear_3_5655" x1="43.9989" y1="8.26135" x2="43.9989" y2="79.7387" gradientUnits="userSpaceOnUse">
<stop stop-color="#0F9B93"/>
<stop offset="1" stop-color="#4CAF50"/>
</linearGradient>
</defs>
</svg>
