<svg width="88" height="88" viewBox="0 0 88 88" fill="none" xmlns="http://www.w3.org/2000/svg">
<path d="M85.2501 45.3754C85.2504 41.7324 84.2169 38.1641 82.2697 35.0851C80.3225 32.0062 77.5416 29.5429 74.2501 27.9816V24.7504C74.2477 21.2068 73.1045 17.7581 70.9897 14.9147C68.8749 12.0713 65.901 9.98432 62.5079 8.96254C59.1148 7.94075 55.4829 8.03849 52.1496 9.24128C48.8164 10.4441 45.9589 12.688 44.0001 15.641C42.0413 12.688 39.1839 10.4441 35.8507 9.24128C32.5174 8.03849 28.8855 7.94075 25.4924 8.96254C22.0993 9.98432 19.1253 12.0713 17.0106 14.9147C14.8958 17.7581 13.7526 21.2068 13.7501 24.7504V27.9816C10.4582 29.5426 7.67675 32.0056 5.7291 35.0846C3.78146 38.1636 2.74756 41.7321 2.74756 45.3754C2.74756 49.0187 3.78146 52.5872 5.7291 55.6661C7.67675 58.7451 10.4582 61.2082 13.7501 62.7691V63.2504C13.7526 66.794 14.8958 70.2427 17.0106 73.086C19.1253 75.9294 22.0993 78.0164 25.4924 79.0382C28.8855 80.06 32.5174 79.9623 35.8507 78.7595C39.1839 77.5567 42.0413 75.3128 44.0001 72.3598C45.9589 75.3128 48.8164 77.5567 52.1496 78.7595C55.4829 79.9623 59.1148 80.06 62.5079 79.0382C65.901 78.0164 68.8749 75.9294 70.9897 73.086C73.1045 70.2427 74.2477 66.794 74.2501 63.2504V62.7691C77.5391 61.2045 80.3177 58.7405 82.2644 55.6623C84.2111 52.5841 85.2463 49.0175 85.2501 45.3754ZM30.2501 74.2504C27.5362 74.2488 24.9187 73.244 22.9009 71.4292C20.883 69.6144 19.6072 67.1177 19.3189 64.4191C20.2058 64.5588 21.1023 64.6278 22.0001 64.6254H24.7501C25.4795 64.6254 26.179 64.3357 26.6947 63.8199C27.2104 63.3042 27.5001 62.6047 27.5001 61.8754C27.5001 61.146 27.2104 60.4466 26.6947 59.9308C26.179 59.4151 25.4795 59.1254 24.7501 59.1254H22.0001C18.7597 59.1199 15.6253 57.9701 13.1499 55.8788C10.6746 53.7876 9.01738 50.8893 8.47065 47.6953C7.92393 44.5013 8.52284 41.2168 10.1617 38.4213C11.8006 35.6258 14.3741 33.499 17.4283 32.416C17.9627 32.2191 18.4239 31.8631 18.7496 31.396C19.0754 30.9288 19.2501 30.373 19.2501 29.8035V24.7504C19.2501 21.833 20.4091 19.0351 22.472 16.9722C24.5349 14.9093 27.3328 13.7504 30.2501 13.7504C33.1675 13.7504 35.9654 14.9093 38.0283 16.9722C40.0912 19.0351 41.2501 21.833 41.2501 24.7504V50.9785C38.2394 48.2461 34.3159 46.738 30.2501 46.7504C29.5208 46.7504 28.8213 47.0401 28.3056 47.5558C27.7899 48.0716 27.5001 48.771 27.5001 49.5004C27.5001 50.2297 27.7899 50.9292 28.3056 51.4449C28.8213 51.9607 29.5208 52.2504 30.2501 52.2504C33.1675 52.2504 35.9654 53.4093 38.0283 55.4722C40.0912 57.5351 41.2501 60.333 41.2501 63.2504C41.2501 66.1678 40.0912 68.9657 38.0283 71.0286C35.9654 73.0915 33.1675 74.2504 30.2501 74.2504ZM66.0001 59.1254H63.2501C62.5208 59.1254 61.8213 59.4151 61.3056 59.9308C60.7899 60.4466 60.5001 61.146 60.5001 61.8754C60.5001 62.6047 60.7899 63.3042 61.3056 63.8199C61.8213 64.3357 62.5208 64.6254 63.2501 64.6254H66.0001C66.8979 64.6278 67.7945 64.5588 68.6814 64.4191C68.4555 66.5331 67.6218 68.5364 66.2813 70.1865C64.9407 71.8366 63.1506 73.0629 61.1277 73.7169C59.1048 74.371 56.9357 74.4248 54.8828 73.8718C52.8299 73.3189 50.9813 72.1829 49.5605 70.6013C48.1398 69.0197 47.2078 67.0603 46.8773 64.9601C46.5469 62.8599 46.8321 60.709 47.6986 58.7675C48.565 56.826 49.9755 55.1772 51.7594 54.0206C53.5433 52.864 55.6241 52.2491 57.7501 52.2504C58.4795 52.2504 59.179 51.9607 59.6947 51.4449C60.2104 50.9292 60.5001 50.2297 60.5001 49.5004C60.5001 48.771 60.2104 48.0716 59.6947 47.5558C59.179 47.0401 58.4795 46.7504 57.7501 46.7504C53.6844 46.738 49.7609 48.2461 46.7501 50.9785V24.7504C46.7501 21.833 47.9091 19.0351 49.972 16.9722C52.0349 14.9093 54.8328 13.7504 57.7501 13.7504C60.6675 13.7504 63.4654 14.9093 65.5283 16.9722C67.5912 19.0351 68.7501 21.833 68.7501 24.7504V29.8035C68.7502 30.373 68.9249 30.9288 69.2507 31.396C69.5764 31.8631 70.0376 32.2191 70.572 32.416C73.6262 33.499 76.1997 35.6258 77.8386 38.4213C79.4774 41.2168 80.0763 44.5013 79.5296 47.6953C78.9829 50.8893 77.3257 53.7876 74.8503 55.8788C72.375 57.9701 69.2406 59.1199 66.0001 59.1254ZM20.6251 44.0004C19.8958 44.0004 19.1963 43.7106 18.6806 43.1949C18.1649 42.6792 17.8751 41.9797 17.8751 41.2504C17.8751 40.521 18.1649 39.8216 18.6806 39.3058C19.1963 38.7901 19.8958 38.5004 20.6251 38.5004C22.4457 38.4913 24.1892 37.7641 25.4765 36.4768C26.7639 35.1894 27.4911 33.446 27.5001 31.6254V28.8754C27.5001 28.146 27.7899 27.4466 28.3056 26.9308C28.8213 26.4151 29.5208 26.1254 30.2501 26.1254C30.9795 26.1254 31.679 26.4151 32.1947 26.9308C32.7104 27.4466 33.0001 28.146 33.0001 28.8754V31.6254C33.0001 34.9074 31.6963 38.0551 29.3756 40.3758C27.0548 42.6966 23.9072 44.0004 20.6251 44.0004ZM70.1251 41.2504C70.1251 41.9797 69.8354 42.6792 69.3197 43.1949C68.804 43.7106 68.1045 44.0004 67.3751 44.0004C64.0931 44.0004 60.9455 42.6966 58.6247 40.3758C56.3039 38.0551 55.0001 34.9074 55.0001 31.6254V28.8754C55.0001 28.146 55.2899 27.4466 55.8056 26.9308C56.3213 26.4151 57.0208 26.1254 57.7501 26.1254C58.4795 26.1254 59.179 26.4151 59.6947 26.9308C60.2104 27.4466 60.5001 28.146 60.5001 28.8754V31.6254C60.5092 33.446 61.2364 35.1894 62.5238 36.4768C63.8111 37.7641 65.5546 38.4913 67.3751 38.5004C68.1045 38.5004 68.804 38.7901 69.3197 39.3058C69.8354 39.8216 70.1251 40.521 70.1251 41.2504Z" fill="url(#paint0_linear_3_6247)"/>
<defs>
<linearGradient id="paint0_linear_3_6247" x1="43.9989" y1="8.26172" x2="43.9989" y2="79.7391" gradientUnits="userSpaceOnUse">
<stop stop-color="#0F9B93"/>
<stop offset="1" stop-color="#4CAF50"/>
</linearGradient>
</defs>
</svg>
