<svg width="88" height="88" viewBox="0 0 88 88" fill="none" xmlns="http://www.w3.org/2000/svg">
<path d="M85.25 45.375C85.2503 41.732 84.2167 38.1637 82.2696 35.0848C80.3224 32.0058 77.5415 29.5426 74.25 27.9813V24.75C74.2476 21.2064 73.1044 17.7577 70.9896 14.9144C68.8748 12.071 65.9008 9.98395 62.5077 8.96217C59.1146 7.94039 55.4827 8.03812 52.1495 9.24091C48.8163 10.4437 45.9588 12.6876 44 15.6406C42.0412 12.6876 39.1838 10.4437 35.8505 9.24091C32.5173 8.03812 28.8854 7.94039 25.4923 8.96217C22.0992 9.98395 19.1252 12.071 17.0104 14.9144C14.8956 17.7577 13.7525 21.2064 13.75 24.75V27.9813C10.458 29.5422 7.67663 32.0053 5.72898 35.0843C3.78133 38.1632 2.74744 41.7317 2.74744 45.375C2.74744 49.0183 3.78133 52.5868 5.72898 55.6658C7.67663 58.7448 10.458 61.2078 13.75 62.7688V63.25C13.7525 66.7936 14.8956 70.2423 17.0104 73.0857C19.1252 75.9291 22.0992 78.0161 25.4923 79.0379C28.8854 80.0596 32.5173 79.9619 35.8505 78.7591C39.1838 77.5563 42.0412 75.3124 44 72.3594C45.9588 75.3124 48.8163 77.5563 52.1495 78.7591C55.4827 79.9619 59.1146 80.0596 62.5077 79.0379C65.9008 78.0161 68.8748 75.9291 70.9896 73.0857C73.1044 70.2423 74.2476 66.7936 74.25 63.25V62.7688C77.5389 61.2042 80.3176 58.7401 82.2643 55.6619C84.211 52.5837 85.2462 49.0171 85.25 45.375V45.375ZM30.25 74.25C27.5361 74.2484 24.9186 73.2436 22.9007 71.4288C20.8829 69.614 19.6071 67.1173 19.3188 64.4188C20.2056 64.5584 21.1022 64.6274 22 64.625H24.75C25.4794 64.625 26.1788 64.3353 26.6946 63.8196C27.2103 63.3038 27.5 62.6044 27.5 61.875C27.5 61.1457 27.2103 60.4462 26.6946 59.9305C26.1788 59.4147 25.4794 59.125 24.75 59.125H22C18.7596 59.1195 15.6252 57.9697 13.1498 55.8785C10.6745 53.7872 9.01726 50.8889 8.47053 47.6949C7.92381 44.5009 8.52272 41.2164 10.1616 38.4209C11.8005 35.6254 14.374 33.4986 17.4281 32.4156C17.9626 32.2188 18.4237 31.8628 18.7495 31.3956C19.0753 30.9285 19.25 30.3727 19.25 29.8031V24.75C19.25 21.8326 20.4089 19.0347 22.4718 16.9718C24.5347 14.9089 27.3326 13.75 30.25 13.75C33.1674 13.75 35.9653 14.9089 38.0282 16.9718C40.0911 19.0347 41.25 21.8326 41.25 24.75V50.9781C38.2393 48.2457 34.3158 46.7376 30.25 46.75C29.5207 46.75 28.8212 47.0397 28.3055 47.5555C27.7897 48.0712 27.5 48.7707 27.5 49.5C27.5 50.2294 27.7897 50.9288 28.3055 51.4446C28.8212 51.9603 29.5207 52.25 30.25 52.25C33.1674 52.25 35.9653 53.4089 38.0282 55.4718C40.0911 57.5347 41.25 60.3326 41.25 63.25C41.25 66.1674 40.0911 68.9653 38.0282 71.0282C35.9653 73.0911 33.1674 74.25 30.25 74.25ZM66 59.125H63.25C62.5207 59.125 61.8212 59.4147 61.3055 59.9305C60.7898 60.4462 60.5 61.1457 60.5 61.875C60.5 62.6044 60.7898 63.3038 61.3055 63.8196C61.8212 64.3353 62.5207 64.625 63.25 64.625H66C66.8978 64.6274 67.7944 64.5584 68.6813 64.4188C68.4554 66.5328 67.6217 68.536 66.2811 70.1861C64.9406 71.8362 63.1505 73.0625 61.1276 73.7165C59.1047 74.3706 56.9356 74.4244 54.8827 73.8715C52.8298 73.3185 50.9812 72.1826 49.5604 70.601C48.1397 69.0194 47.2077 67.0599 46.8772 64.9597C46.5468 62.8595 46.832 60.7086 47.6985 58.7671C48.5649 56.8257 49.9754 55.1769 51.7593 54.0203C53.5432 52.8636 55.624 52.2488 57.75 52.25C58.4794 52.25 59.1788 51.9603 59.6946 51.4446C60.2103 50.9288 60.5 50.2294 60.5 49.5C60.5 48.7707 60.2103 48.0712 59.6946 47.5555C59.1788 47.0397 58.4794 46.75 57.75 46.75C53.6843 46.7376 49.7607 48.2457 46.75 50.9781V24.75C46.75 21.8326 47.9089 19.0347 49.9718 16.9718C52.0347 14.9089 54.8326 13.75 57.75 13.75C60.6674 13.75 63.4653 14.9089 65.5282 16.9718C67.5911 19.0347 68.75 21.8326 68.75 24.75V29.8031C68.7501 30.3727 68.9248 30.9285 69.2505 31.3956C69.5763 31.8628 70.0375 32.2188 70.5719 32.4156C73.626 33.4986 76.1996 35.6254 77.8384 38.4209C79.4773 41.2164 80.0762 44.5009 79.5295 47.6949C78.9828 50.8889 77.3256 53.7872 74.8502 55.8785C72.3749 57.9697 69.2405 59.1195 66 59.125V59.125ZM20.625 44C19.8957 44 19.1962 43.7103 18.6805 43.1946C18.1647 42.6788 17.875 41.9794 17.875 41.25C17.875 40.5207 18.1647 39.8212 18.6805 39.3055C19.1962 38.7897 19.8957 38.5 20.625 38.5C22.4456 38.491 24.189 37.7637 25.4764 36.4764C26.7638 35.189 27.491 33.4456 27.5 31.625V28.875C27.5 28.1457 27.7897 27.4462 28.3055 26.9305C28.8212 26.4147 29.5207 26.125 30.25 26.125C30.9794 26.125 31.6788 26.4147 32.1946 26.9305C32.7103 27.4462 33 28.1457 33 28.875V31.625C33 34.9071 31.6962 38.0547 29.3755 40.3755C27.0547 42.6962 23.9071 44 20.625 44V44ZM70.125 41.25C70.125 41.9794 69.8353 42.6788 69.3196 43.1946C68.8038 43.7103 68.1044 44 67.375 44C64.093 44 60.9453 42.6962 58.6246 40.3755C56.3038 38.0547 55 34.9071 55 31.625V28.875C55 28.1457 55.2898 27.4462 55.8055 26.9305C56.3212 26.4147 57.0207 26.125 57.75 26.125C58.4794 26.125 59.1788 26.4147 59.6946 26.9305C60.2103 27.4462 60.5 28.1457 60.5 28.875V31.625C60.5091 33.4456 61.2363 35.189 62.5236 36.4764C63.811 37.7637 65.5544 38.491 67.375 38.5C68.1044 38.5 68.8038 38.7897 69.3196 39.3055C69.8353 39.8212 70.125 40.5207 70.125 41.25Z" fill="url(#paint0_linear_4_383)"/>
<defs>
<linearGradient id="paint0_linear_4_383" x1="43.9987" y1="8.26135" x2="43.9987" y2="79.7387" gradientUnits="userSpaceOnUse">
<stop stop-color="#0F9B93"/>
<stop offset="1" stop-color="#4CAF50"/>
</linearGradient>
</defs>
</svg>
