<svg width="88" height="88" viewBox="0 0 88 88" fill="none" xmlns="http://www.w3.org/2000/svg">
<path d="M85.2499 45.375C85.2501 41.732 84.2166 38.1637 82.2694 35.0848C80.3223 32.0058 77.5414 29.5426 74.2499 27.9813V24.75C74.2475 21.2064 73.1043 17.7577 70.9895 14.9144C68.8747 12.071 65.9007 9.98395 62.5076 8.96217C59.1145 7.94039 55.4826 8.03812 52.1494 9.24091C48.8161 10.4437 45.9587 12.6876 43.9999 15.6406C42.0411 12.6876 39.1836 10.4437 35.8504 9.24091C32.5172 8.03812 28.8853 7.94039 25.4922 8.96217C22.0991 9.98395 19.1251 12.071 17.0103 14.9144C14.8955 17.7577 13.7523 21.2064 13.7499 24.75V27.9813C10.4579 29.5422 7.6765 32.0053 5.72886 35.0843C3.78121 38.1632 2.74731 41.7317 2.74731 45.375C2.74731 49.0183 3.78121 52.5868 5.72886 55.6658C7.6765 58.7448 10.4579 61.2078 13.7499 62.7688V63.25C13.7523 66.7936 14.8955 70.2423 17.0103 73.0857C19.1251 75.9291 22.0991 78.0161 25.4922 79.0379C28.8853 80.0596 32.5172 79.9619 35.8504 78.7591C39.1836 77.5563 42.0411 75.3124 43.9999 72.3594C45.9587 75.3124 48.8161 77.5563 52.1494 78.7591C55.4826 79.9619 59.1145 80.0596 62.5076 79.0379C65.9007 78.0161 68.8747 75.9291 70.9895 73.0857C73.1043 70.2423 74.2475 66.7936 74.2499 63.25V62.7688C77.5388 61.2042 80.3174 58.7401 82.2641 55.6619C84.2108 52.5837 85.246 49.0171 85.2499 45.375V45.375ZM30.2499 74.25C27.536 74.2484 24.9185 73.2436 22.9006 71.4288C20.8827 69.614 19.607 67.1173 19.3186 64.4188C20.2055 64.5584 21.1021 64.6274 21.9999 64.625H24.7499C25.4792 64.625 26.1787 64.3353 26.6944 63.8196C27.2102 63.3038 27.4999 62.6044 27.4999 61.875C27.4999 61.1457 27.2102 60.4462 26.6944 59.9305C26.1787 59.4147 25.4792 59.125 24.7499 59.125H21.9999C18.7594 59.1195 15.625 57.9697 13.1497 55.8785C10.6744 53.7872 9.01713 50.8889 8.47041 47.6949C7.92369 44.5009 8.5226 41.2164 10.1615 38.4209C11.8003 35.6254 14.3739 33.4986 17.428 32.4156C17.9624 32.2188 18.4236 31.8628 18.7494 31.3956C19.0752 30.9285 19.2498 30.3727 19.2499 29.8031V24.75C19.2499 21.8326 20.4088 19.0347 22.4717 16.9718C24.5346 14.9089 27.3325 13.75 30.2499 13.75C33.1673 13.75 35.9652 14.9089 38.0281 16.9718C40.091 19.0347 41.2499 21.8326 41.2499 24.75V50.9781C38.2392 48.2457 34.3157 46.7376 30.2499 46.75C29.5205 46.75 28.8211 47.0397 28.3054 47.5555C27.7896 48.0712 27.4999 48.7707 27.4999 49.5C27.4999 50.2294 27.7896 50.9288 28.3054 51.4446C28.8211 51.9603 29.5205 52.25 30.2499 52.25C33.1673 52.25 35.9652 53.4089 38.0281 55.4718C40.091 57.5347 41.2499 60.3326 41.2499 63.25C41.2499 66.1674 40.091 68.9653 38.0281 71.0282C35.9652 73.0911 33.1673 74.25 30.2499 74.25ZM65.9999 59.125H63.2499C62.5206 59.125 61.8211 59.4147 61.3054 59.9305C60.7896 60.4462 60.4999 61.1457 60.4999 61.875C60.4999 62.6044 60.7896 63.3038 61.3054 63.8196C61.8211 64.3353 62.5206 64.625 63.2499 64.625H65.9999C66.8977 64.6274 67.7943 64.5584 68.6812 64.4188C68.4553 66.5328 67.6216 68.536 66.281 70.1861C64.9404 71.8362 63.1504 73.0625 61.1275 73.7165C59.1046 74.3706 56.9354 74.4244 54.8826 73.8715C52.8297 73.3185 50.981 72.1826 49.5603 70.601C48.1395 69.0194 47.2075 67.0599 46.8771 64.9597C46.5467 62.8595 46.8319 60.7086 47.6983 58.7671C48.5648 56.8257 49.9753 55.1769 51.7591 54.0203C53.543 52.8636 55.6239 52.2488 57.7499 52.25C58.4792 52.25 59.1787 51.9603 59.6944 51.4446C60.2102 50.9288 60.4999 50.2294 60.4999 49.5C60.4999 48.7707 60.2102 48.0712 59.6944 47.5555C59.1787 47.0397 58.4792 46.75 57.7499 46.75C53.6841 46.7376 49.7606 48.2457 46.7499 50.9781V24.75C46.7499 21.8326 47.9088 19.0347 49.9717 16.9718C52.0346 14.9089 54.8325 13.75 57.7499 13.75C60.6673 13.75 63.4652 14.9089 65.5281 16.9718C67.591 19.0347 68.7499 21.8326 68.7499 24.75V29.8031C68.7499 30.3727 68.9246 30.9285 69.2504 31.3956C69.5762 31.8628 70.0374 32.2188 70.5718 32.4156C73.6259 33.4986 76.1994 35.6254 77.8383 38.4209C79.4772 41.2164 80.0761 44.5009 79.5294 47.6949C78.9827 50.8889 77.3254 53.7872 74.8501 55.8785C72.3748 57.9697 69.2404 59.1195 65.9999 59.125V59.125ZM20.6249 44C19.8955 44 19.1961 43.7103 18.6804 43.1946C18.1646 42.6788 17.8749 41.9794 17.8749 41.25C17.8749 40.5207 18.1646 39.8212 18.6804 39.3055C19.1961 38.7897 19.8955 38.5 20.6249 38.5C22.4455 38.491 24.1889 37.7637 25.4763 36.4764C26.7636 35.189 27.4909 33.4456 27.4999 31.625V28.875C27.4999 28.1457 27.7896 27.4462 28.3054 26.9305C28.8211 26.4147 29.5205 26.125 30.2499 26.125C30.9792 26.125 31.6787 26.4147 32.1944 26.9305C32.7102 27.4462 32.9999 28.1457 32.9999 28.875V31.625C32.9999 34.9071 31.6961 38.0547 29.3753 40.3755C27.0546 42.6962 23.9069 44 20.6249 44V44ZM70.1249 41.25C70.1249 41.9794 69.8352 42.6788 69.3194 43.1946C68.8037 43.7103 68.1042 44 67.3749 44C64.0928 44 60.9452 42.6962 58.6245 40.3755C56.3037 38.0547 54.9999 34.9071 54.9999 31.625V28.875C54.9999 28.1457 55.2896 27.4462 55.8054 26.9305C56.3211 26.4147 57.0206 26.125 57.7499 26.125C58.4792 26.125 59.1787 26.4147 59.6944 26.9305C60.2102 27.4462 60.4999 28.1457 60.4999 28.875V31.625C60.5089 33.4456 61.2362 35.189 62.5235 36.4764C63.8109 37.7637 65.5543 38.491 67.3749 38.5C68.1042 38.5 68.8037 38.7897 69.3194 39.3055C69.8352 39.8212 70.1249 40.5207 70.1249 41.25Z" fill="url(#paint0_linear_4_318)"/>
<defs>
<linearGradient id="paint0_linear_4_318" x1="43.9986" y1="8.26135" x2="43.9986" y2="79.7387" gradientUnits="userSpaceOnUse">
<stop stop-color="#0F9B93"/>
<stop offset="1" stop-color="#4CAF50"/>
</linearGradient>
</defs>
</svg>
