<svg width="88" height="88" viewBox="0 0 88 88" fill="none" xmlns="http://www.w3.org/2000/svg">
<path d="M85.2501 45.3749C85.2504 41.7319 84.2169 38.1636 82.2697 35.0846C80.3225 32.0057 77.5416 29.5424 74.2501 27.9811V24.7499C74.2477 21.2063 73.1045 17.7576 70.9897 14.9142C68.8749 12.0708 65.901 9.98383 62.5079 8.96205C59.1148 7.94026 55.4829 8.038 52.1496 9.24079C48.8164 10.4436 45.9589 12.6875 44.0001 15.6405C42.0413 12.6875 39.1839 10.4436 35.8507 9.24079C32.5174 8.038 28.8855 7.94026 25.4924 8.96205C22.0993 9.98383 19.1253 12.0708 17.0106 14.9142C14.8958 17.7576 13.7526 21.2063 13.7501 24.7499V27.9811C10.4582 29.5421 7.67675 32.0051 5.7291 35.0841C3.78146 38.1631 2.74756 41.7316 2.74756 45.3749C2.74756 49.0182 3.78146 52.5867 5.7291 55.6657C7.67675 58.7447 10.4582 61.2077 13.7501 62.7686V63.2499C13.7526 66.7935 14.8958 70.2422 17.0106 73.0856C19.1253 75.9289 22.0993 78.016 25.4924 79.0377C28.8855 80.0595 32.5174 79.9618 35.8507 78.759C39.1839 77.5562 42.0413 75.3123 44.0001 72.3593C45.9589 75.3123 48.8164 77.5562 52.1496 78.759C55.4829 79.9618 59.1148 80.0595 62.5079 79.0377C65.901 78.016 68.8749 75.9289 70.9897 73.0856C73.1045 70.2422 74.2477 66.7935 74.2501 63.2499V62.7686C77.5391 61.204 80.3177 58.74 82.2644 55.6618C84.2111 52.5836 85.2463 49.017 85.2501 45.3749ZM30.2501 74.2499C27.5362 74.2483 24.9187 73.2435 22.9009 71.4287C20.883 69.6139 19.6072 67.1172 19.3189 64.4186C20.2058 64.5583 21.1023 64.6273 22.0001 64.6249H24.7501C25.4795 64.6249 26.179 64.3352 26.6947 63.8194C27.2104 63.3037 27.5001 62.6042 27.5001 61.8749C27.5001 61.1455 27.2104 60.4461 26.6947 59.9304C26.179 59.4146 25.4795 59.1249 24.7501 59.1249H22.0001C18.7597 59.1194 15.6253 57.9696 13.1499 55.8783C10.6746 53.7871 9.01738 50.8888 8.47065 47.6948C7.92393 44.5008 8.52284 41.2163 10.1617 38.4208C11.8006 35.6253 14.3741 33.4985 17.4283 32.4155C17.9627 32.2186 18.4239 31.8626 18.7496 31.3955C19.0754 30.9283 19.2501 30.3725 19.2501 29.803V24.7499C19.2501 21.8325 20.4091 19.0346 22.472 16.9717C24.5349 14.9088 27.3328 13.7499 30.2501 13.7499C33.1675 13.7499 35.9654 14.9088 38.0283 16.9717C40.0912 19.0346 41.2501 21.8325 41.2501 24.7499V50.978C38.2394 48.2456 34.3159 46.7375 30.2501 46.7499C29.5208 46.7499 28.8213 47.0396 28.3056 47.5553C27.7899 48.0711 27.5001 48.7705 27.5001 49.4999C27.5001 50.2292 27.7899 50.9287 28.3056 51.4444C28.8213 51.9602 29.5208 52.2499 30.2501 52.2499C33.1675 52.2499 35.9654 53.4088 38.0283 55.4717C40.0912 57.5346 41.2501 60.3325 41.2501 63.2499C41.2501 66.1673 40.0912 68.9652 38.0283 71.0281C35.9654 73.091 33.1675 74.2499 30.2501 74.2499ZM66.0001 59.1249H63.2501C62.5208 59.1249 61.8213 59.4146 61.3056 59.9304C60.7899 60.4461 60.5001 61.1455 60.5001 61.8749C60.5001 62.6042 60.7899 63.3037 61.3056 63.8194C61.8213 64.3352 62.5208 64.6249 63.2501 64.6249H66.0001C66.8979 64.6273 67.7945 64.5583 68.6814 64.4186C68.4555 66.5326 67.6218 68.5359 66.2813 70.186C64.9407 71.8361 63.1506 73.0624 61.1277 73.7164C59.1048 74.3705 56.9357 74.4243 54.8828 73.8714C52.8299 73.3184 50.9813 72.1824 49.5605 70.6008C48.1398 69.0192 47.2078 67.0598 46.8773 64.9596C46.5469 62.8594 46.8321 60.7085 47.6986 58.767C48.565 56.8255 49.9755 55.1767 51.7594 54.0201C53.5433 52.8635 55.6241 52.2486 57.7501 52.2499C58.4795 52.2499 59.179 51.9602 59.6947 51.4444C60.2104 50.9287 60.5001 50.2292 60.5001 49.4999C60.5001 48.7705 60.2104 48.0711 59.6947 47.5553C59.179 47.0396 58.4795 46.7499 57.7501 46.7499C53.6844 46.7375 49.7609 48.2456 46.7501 50.978V24.7499C46.7501 21.8325 47.9091 19.0346 49.972 16.9717C52.0349 14.9088 54.8328 13.7499 57.7501 13.7499C60.6675 13.7499 63.4654 14.9088 65.5283 16.9717C67.5912 19.0346 68.7501 21.8325 68.7501 24.7499V29.803C68.7502 30.3725 68.9249 30.9283 69.2507 31.3955C69.5764 31.8626 70.0376 32.2186 70.572 32.4155C73.6262 33.4985 76.1997 35.6253 77.8386 38.4208C79.4774 41.2163 80.0763 44.5008 79.5296 47.6948C78.9829 50.8888 77.3257 53.7871 74.8503 55.8783C72.375 57.9696 69.2406 59.1194 66.0001 59.1249ZM20.6251 43.9999C19.8958 43.9999 19.1963 43.7102 18.6806 43.1944C18.1649 42.6787 17.8751 41.9792 17.8751 41.2499C17.8751 40.5205 18.1649 39.8211 18.6806 39.3053C19.1963 38.7896 19.8958 38.4999 20.6251 38.4999C22.4457 38.4909 24.1892 37.7636 25.4765 36.4763C26.7639 35.1889 27.4911 33.4455 27.5001 31.6249V28.8749C27.5001 28.1455 27.7899 27.4461 28.3056 26.9304C28.8213 26.4146 29.5208 26.1249 30.2501 26.1249C30.9795 26.1249 31.679 26.4146 32.1947 26.9304C32.7104 27.4461 33.0001 28.1455 33.0001 28.8749V31.6249C33.0001 34.9069 31.6963 38.0546 29.3756 40.3753C27.0548 42.6961 23.9072 43.9999 20.6251 43.9999ZM70.1251 41.2499C70.1251 41.9792 69.8354 42.6787 69.3197 43.1944C68.804 43.7102 68.1045 43.9999 67.3751 43.9999C64.0931 43.9999 60.9455 42.6961 58.6247 40.3753C56.3039 38.0546 55.0001 34.9069 55.0001 31.6249V28.8749C55.0001 28.1455 55.2899 27.4461 55.8056 26.9304C56.3213 26.4146 57.0208 26.1249 57.7501 26.1249C58.4795 26.1249 59.179 26.4146 59.6947 26.9304C60.2104 27.4461 60.5001 28.1455 60.5001 28.8749V31.6249C60.5092 33.4455 61.2364 35.1889 62.5238 36.4763C63.8111 37.7636 65.5546 38.4909 67.3751 38.4999C68.1045 38.4999 68.804 38.7896 69.3197 39.3053C69.8354 39.8211 70.1251 40.5205 70.1251 41.2499Z" fill="url(#paint0_linear_3_5545)"/>
<defs>
<linearGradient id="paint0_linear_3_5545" x1="43.9989" y1="8.26123" x2="43.9989" y2="79.7386" gradientUnits="userSpaceOnUse">
<stop stop-color="#0F9B93"/>
<stop offset="1" stop-color="#4CAF50"/>
</linearGradient>
</defs>
</svg>
