<svg width="88" height="88" viewBox="0 0 88 88" fill="none" xmlns="http://www.w3.org/2000/svg">
<path d="M85.2499 45.3749C85.2501 41.7319 84.2166 38.1636 82.2694 35.0846C80.3223 32.0057 77.5414 29.5424 74.2499 27.9811V24.7499C74.2475 21.2063 73.1043 17.7576 70.9895 14.9142C68.8747 12.0708 65.9007 9.98383 62.5076 8.96205C59.1145 7.94026 55.4826 8.038 52.1494 9.24079C48.8161 10.4436 45.9587 12.6875 43.9999 15.6405C42.0411 12.6875 39.1836 10.4436 35.8504 9.24079C32.5172 8.038 28.8853 7.94026 25.4922 8.96205C22.0991 9.98383 19.1251 12.0708 17.0103 14.9142C14.8955 17.7576 13.7523 21.2063 13.7499 24.7499V27.9811C10.4579 29.5421 7.6765 32.0051 5.72886 35.0841C3.78121 38.1631 2.74731 41.7316 2.74731 45.3749C2.74731 49.0182 3.78121 52.5867 5.72886 55.6657C7.6765 58.7447 10.4579 61.2077 13.7499 62.7686V63.2499C13.7523 66.7935 14.8955 70.2422 17.0103 73.0856C19.1251 75.9289 22.0991 78.016 25.4922 79.0377C28.8853 80.0595 32.5172 79.9618 35.8504 78.759C39.1836 77.5562 42.0411 75.3123 43.9999 72.3593C45.9587 75.3123 48.8161 77.5562 52.1494 78.759C55.4826 79.9618 59.1145 80.0595 62.5076 79.0377C65.9007 78.016 68.8747 75.9289 70.9895 73.0856C73.1043 70.2422 74.2475 66.7935 74.2499 63.2499V62.7686C77.5388 61.204 80.3174 58.74 82.2641 55.6618C84.2108 52.5836 85.246 49.017 85.2499 45.3749ZM30.2499 74.2499C27.536 74.2483 24.9185 73.2435 22.9006 71.4287C20.8827 69.6139 19.607 67.1172 19.3186 64.4186C20.2055 64.5583 21.1021 64.6273 21.9999 64.6249H24.7499C25.4792 64.6249 26.1787 64.3352 26.6944 63.8194C27.2102 63.3037 27.4999 62.6042 27.4999 61.8749C27.4999 61.1455 27.2102 60.4461 26.6944 59.9304C26.1787 59.4146 25.4792 59.1249 24.7499 59.1249H21.9999C18.7594 59.1194 15.625 57.9696 13.1497 55.8783C10.6744 53.7871 9.01713 50.8888 8.47041 47.6948C7.92369 44.5008 8.5226 41.2163 10.1615 38.4208C11.8003 35.6253 14.3739 33.4985 17.428 32.4155C17.9624 32.2186 18.4236 31.8626 18.7494 31.3955C19.0752 30.9283 19.2498 30.3725 19.2499 29.803V24.7499C19.2499 21.8325 20.4088 19.0346 22.4717 16.9717C24.5346 14.9088 27.3325 13.7499 30.2499 13.7499C33.1673 13.7499 35.9652 14.9088 38.0281 16.9717C40.091 19.0346 41.2499 21.8325 41.2499 24.7499V50.978C38.2392 48.2456 34.3157 46.7375 30.2499 46.7499C29.5205 46.7499 28.8211 47.0396 28.3054 47.5553C27.7896 48.0711 27.4999 48.7705 27.4999 49.4999C27.4999 50.2292 27.7896 50.9287 28.3054 51.4444C28.8211 51.9602 29.5205 52.2499 30.2499 52.2499C33.1673 52.2499 35.9652 53.4088 38.0281 55.4717C40.091 57.5346 41.2499 60.3325 41.2499 63.2499C41.2499 66.1673 40.091 68.9652 38.0281 71.0281C35.9652 73.091 33.1673 74.2499 30.2499 74.2499ZM65.9999 59.1249H63.2499C62.5206 59.1249 61.8211 59.4146 61.3054 59.9304C60.7896 60.4461 60.4999 61.1455 60.4999 61.8749C60.4999 62.6042 60.7896 63.3037 61.3054 63.8194C61.8211 64.3352 62.5206 64.6249 63.2499 64.6249H65.9999C66.8977 64.6273 67.7943 64.5583 68.6812 64.4186C68.4553 66.5326 67.6216 68.5359 66.281 70.186C64.9404 71.8361 63.1504 73.0624 61.1275 73.7164C59.1045 74.3705 56.9354 74.4243 54.8826 73.8714C52.8297 73.3184 50.981 72.1824 49.5603 70.6008C48.1395 69.0192 47.2075 67.0598 46.8771 64.9596C46.5467 62.8594 46.8319 60.7085 47.6983 58.767C48.5648 56.8255 49.9753 55.1767 51.7591 54.0201C53.543 52.8635 55.6239 52.2486 57.7499 52.2499C58.4792 52.2499 59.1787 51.9602 59.6944 51.4444C60.2102 50.9287 60.4999 50.2292 60.4999 49.4999C60.4999 48.7705 60.2102 48.0711 59.6944 47.5553C59.1787 47.0396 58.4792 46.7499 57.7499 46.7499C53.6841 46.7375 49.7606 48.2456 46.7499 50.978V24.7499C46.7499 21.8325 47.9088 19.0346 49.9717 16.9717C52.0346 14.9088 54.8325 13.7499 57.7499 13.7499C60.6673 13.7499 63.4652 14.9088 65.5281 16.9717C67.591 19.0346 68.7499 21.8325 68.7499 24.7499V29.803C68.7499 30.3725 68.9246 30.9283 69.2504 31.3955C69.5762 31.8626 70.0374 32.2186 70.5718 32.4155C73.6259 33.4985 76.1994 35.6253 77.8383 38.4208C79.4772 41.2163 80.0761 44.5008 79.5294 47.6948C78.9827 50.8888 77.3254 53.7871 74.8501 55.8783C72.3748 57.9696 69.2404 59.1194 65.9999 59.1249ZM20.6249 43.9999C19.8955 43.9999 19.1961 43.7102 18.6804 43.1944C18.1646 42.6787 17.8749 41.9792 17.8749 41.2499C17.8749 40.5205 18.1646 39.8211 18.6804 39.3053C19.1961 38.7896 19.8955 38.4999 20.6249 38.4999C22.4455 38.4909 24.1889 37.7636 25.4763 36.4763C26.7636 35.1889 27.4909 33.4455 27.4999 31.6249V28.8749C27.4999 28.1455 27.7896 27.4461 28.3054 26.9304C28.8211 26.4146 29.5205 26.1249 30.2499 26.1249C30.9792 26.1249 31.6787 26.4146 32.1944 26.9304C32.7102 27.4461 32.9999 28.1455 32.9999 28.8749V31.6249C32.9999 34.9069 31.6961 38.0546 29.3753 40.3753C27.0546 42.6961 23.9069 43.9999 20.6249 43.9999ZM70.1249 41.2499C70.1249 41.9792 69.8352 42.6787 69.3195 43.1944C68.8037 43.7102 68.1042 43.9999 67.3749 43.9999C64.0928 43.9999 60.9452 42.6961 58.6245 40.3753C56.3037 38.0546 54.9999 34.9069 54.9999 31.6249V28.8749C54.9999 28.1455 55.2896 27.4461 55.8054 26.9304C56.3211 26.4146 57.0206 26.1249 57.7499 26.1249C58.4792 26.1249 59.1787 26.4146 59.6944 26.9304C60.2102 27.4461 60.4999 28.1455 60.4999 28.8749V31.6249C60.5089 33.4455 61.2362 35.1889 62.5235 36.4763C63.8109 37.7636 65.5543 38.4909 67.3749 38.4999C68.1042 38.4999 68.8037 38.7896 69.3195 39.3053C69.8352 39.8211 70.1249 40.5205 70.1249 41.2499Z" fill="url(#paint0_linear_3_6088)"/>
<defs>
<linearGradient id="paint0_linear_3_6088" x1="43.9986" y1="8.26123" x2="43.9986" y2="79.7386" gradientUnits="userSpaceOnUse">
<stop stop-color="#0F9B93"/>
<stop offset="1" stop-color="#4CAF50"/>
</linearGradient>
</defs>
</svg>
