<svg width="32" height="32" viewBox="0 0 32 32" fill="none" xmlns="http://www.w3.org/2000/svg">
<rect width="32" height="32" fill="white"/>
<path fill-rule="evenodd" clip-rule="evenodd" d="M26.3625 10.7852C26.3715 11.0183 26.3745 11.2514 26.3745 11.4846C26.3745 18.5542 21.4014 26.7157 12.3073 26.7157C9.51376 26.7157 6.91616 25.8253 4.72754 24.3096C5.11442 24.352 5.50733 24.3839 5.90626 24.3839C8.2225 24.3839 10.3558 23.5252 12.0481 22.0837C9.88456 22.0519 8.05771 20.4939 7.42765 18.374C7.73012 18.4376 8.04161 18.4695 8.36015 18.4695C8.80933 18.4695 9.24544 18.406 9.66347 18.2788C7.39949 17.7912 5.69423 15.6291 5.69423 13.0323C5.69423 13.0005 5.69423 12.9898 5.69423 12.9686C6.36147 13.3608 7.12516 13.6045 7.9361 13.6363C6.60765 12.6717 5.73441 11.0289 5.73441 9.17408C5.73441 8.19897 5.97759 7.2768 6.40566 6.48187C8.84349 9.7252 12.4882 11.8556 16.5971 12.0782C16.5127 11.6861 16.4695 11.2728 16.4695 10.8594C16.4695 7.90229 18.6832 5.50684 21.4145 5.50684C22.8364 5.50684 24.1206 6.15347 25.022 7.19219C26.1504 6.95901 27.2076 6.51387 28.1642 5.89913C27.7934 7.14982 27.0106 8.19891 25.9877 8.85606C26.9885 8.72887 27.9432 8.44291 28.8285 8.01895C28.1642 9.08946 27.3282 10.0326 26.3625 10.7852Z" fill="#0F9B93"/>
</svg>
