<svg width="36" height="36" viewBox="0 0 36 36" fill="none" xmlns="http://www.w3.org/2000/svg">
<g clip-path="url(#clip0_3_5889)">
<path d="M32 5H4C2.93913 5 1.92172 5.42143 1.17157 6.17157C0.421427 6.92172 0 7.93913 0 9L0 14H36V9C36 7.93913 35.5786 6.92172 34.8284 6.17157C34.0783 5.42143 33.0609 5 32 5Z" fill="#CC212D"/>
<path d="M15.423 22H20.608L18.016 20.116L15.423 22ZM19.01 17.059H22.225L19.624 18.948L20.615 22H36V14H18.016L19.01 17.059ZM16.408 18.948L13.807 17.059H17.022L18.016 14H0V22H15.416L16.408 18.948Z" fill="#FBD116"/>
<path d="M20.617 22.006L20.608 22H15.422L15.413 22.006L15.416 22H0V27C0 28.0609 0.421427 29.0783 1.17157 29.8284C1.92172 30.5786 2.93913 31 4 31H32C33.0609 31 34.0783 30.5786 34.8284 29.8284C35.5786 29.0783 36 28.0609 36 27V22H20.615L20.617 22.006Z" fill="#288541"/>
<path d="M13.8071 17.059L16.4081 18.948L15.4161 22L15.4141 22.006L15.4231 22L18.0161 20.116L20.6081 22L20.6171 22.006L20.6151 22L19.6241 18.948L22.2251 17.059H19.0101L18.0161 14L17.0221 17.059H13.8071Z" fill="black"/>
</g>
<defs>
<clipPath id="clip0_3_5889">
<rect width="36" height="36" fill="white"/>
</clipPath>
</defs>
</svg>
